ISO-10303-21;
HEADER;
/* Generated by software containing ST-Developer
 * from STEP Tools, Inc. (www.steptools.com) 
 */

FILE_DESCRIPTION(
/* description */ (''),
/* implementation_level */ '2;1');

FILE_NAME(
/* name */ 'Arrow.step',
/* time_stamp */ '2026-06-08T21:06:54+02:00',
/* author */ (''),
/* organization */ (''),
/* preprocessor_version */ 'ST-DEVELOPER v20.1',
/* originating_system */ 'Autodesk Translation Framework v15.8.0.0',
/* authorisation */ '');

FILE_SCHEMA (('AUTOMOTIVE_DESIGN { 1 0 10303 214 3 1 1 }'));
ENDSEC;

DATA;
#10=MECHANICAL_DESIGN_GEOMETRIC_PRESENTATION_REPRESENTATION('',(#13),#564);
#11=SHAPE_REPRESENTATION_RELATIONSHIP('SRR','None',#571,#12);
#12=ADVANCED_BREP_SHAPE_REPRESENTATION('',(#14),#563);
#13=STYLED_ITEM('',(#580),#14);
#14=MANIFOLD_SOLID_BREP('Bry\X2\0142\X0\a13',#328);
#15=FACE_BOUND('',#48,.T.);
#16=FACE_BOUND('',#62,.T.);
#17=PLANE('',#348);
#18=PLANE('',#349);
#19=PLANE('',#357);
#20=PLANE('',#360);
#21=PLANE('',#363);
#22=PLANE('',#366);
#23=PLANE('',#367);
#24=PLANE('',#368);
#25=PLANE('',#371);
#26=PLANE('',#372);
#27=FACE_OUTER_BOUND('',#44,.T.);
#28=FACE_OUTER_BOUND('',#45,.T.);
#29=FACE_OUTER_BOUND('',#46,.T.);
#30=FACE_OUTER_BOUND('',#47,.T.);
#31=FACE_OUTER_BOUND('',#49,.T.);
#32=FACE_OUTER_BOUND('',#50,.T.);
#33=FACE_OUTER_BOUND('',#51,.T.);
#34=FACE_OUTER_BOUND('',#52,.T.);
#35=FACE_OUTER_BOUND('',#53,.T.);
#36=FACE_OUTER_BOUND('',#54,.T.);
#37=FACE_OUTER_BOUND('',#55,.T.);
#38=FACE_OUTER_BOUND('',#56,.T.);
#39=FACE_OUTER_BOUND('',#57,.T.);
#40=FACE_OUTER_BOUND('',#58,.T.);
#41=FACE_OUTER_BOUND('',#59,.T.);
#42=FACE_OUTER_BOUND('',#60,.T.);
#43=FACE_OUTER_BOUND('',#61,.T.);
#44=EDGE_LOOP('',(#214,#215,#216,#217));
#45=EDGE_LOOP('',(#218,#219,#220,#221));
#46=EDGE_LOOP('',(#222,#223,#224,#225));
#47=EDGE_LOOP('',(#226,#227,#228,#229,#230,#231,#232,#233,#234,#235,#236,
#237,#238,#239));
#48=EDGE_LOOP('',(#240));
#49=EDGE_LOOP('',(#241,#242,#243,#244));
#50=EDGE_LOOP('',(#245,#246,#247,#248));
#51=EDGE_LOOP('',(#249,#250,#251,#252));
#52=EDGE_LOOP('',(#253,#254,#255,#256));
#53=EDGE_LOOP('',(#257,#258,#259,#260));
#54=EDGE_LOOP('',(#261,#262,#263,#264));
#55=EDGE_LOOP('',(#265,#266,#267,#268));
#56=EDGE_LOOP('',(#269,#270,#271,#272));
#57=EDGE_LOOP('',(#273,#274,#275,#276));
#58=EDGE_LOOP('',(#277,#278,#279,#280));
#59=EDGE_LOOP('',(#281,#282,#283,#284));
#60=EDGE_LOOP('',(#285,#286,#287,#288));
#61=EDGE_LOOP('',(#289,#290,#291,#292,#293,#294,#295,#296,#297,#298,#299,
#300,#301,#302));
#62=EDGE_LOOP('',(#303));
#63=LINE('',#473,#94);
#64=LINE('',#480,#95);
#65=LINE('',#483,#96);
#66=LINE('',#486,#97);
#67=LINE('',#488,#98);
#68=LINE('',#489,#99);
#69=LINE('',#492,#100);
#70=LINE('',#494,#101);
#71=LINE('',#498,#102);
#72=LINE('',#502,#103);
#73=LINE('',#506,#104);
#74=LINE('',#510,#105);
#75=LINE('',#513,#106);
#76=LINE('',#518,#107);
#77=LINE('',#519,#108);
#78=LINE('',#522,#109);
#79=LINE('',#523,#110);
#80=LINE('',#528,#111);
#81=LINE('',#529,#112);
#82=LINE('',#531,#113);
#83=LINE('',#536,#114);
#84=LINE('',#537,#115);
#85=LINE('',#540,#116);
#86=LINE('',#541,#117);
#87=LINE('',#546,#118);
#88=LINE('',#547,#119);
#89=LINE('',#549,#120);
#90=LINE('',#551,#121);
#91=LINE('',#554,#122);
#92=LINE('',#555,#123);
#93=LINE('',#559,#124);
#94=VECTOR('',#379,2.49);
#95=VECTOR('',#386,10.);
#96=VECTOR('',#389,10.);
#97=VECTOR('',#392,10.);
#98=VECTOR('',#393,10.);
#99=VECTOR('',#394,10.);
#100=VECTOR('',#397,10.);
#101=VECTOR('',#398,10.);
#102=VECTOR('',#401,10.);
#103=VECTOR('',#404,10.);
#104=VECTOR('',#407,10.);
#105=VECTOR('',#410,10.);
#106=VECTOR('',#413,10.);
#107=VECTOR('',#418,10.);
#108=VECTOR('',#419,10.);
#109=VECTOR('',#422,10.);
#110=VECTOR('',#423,10.);
#111=VECTOR('',#428,10.);
#112=VECTOR('',#429,10.);
#113=VECTOR('',#432,10.);
#114=VECTOR('',#437,10.);
#115=VECTOR('',#438,10.);
#116=VECTOR('',#441,10.);
#117=VECTOR('',#442,10.);
#118=VECTOR('',#447,10.);
#119=VECTOR('',#448,10.);
#120=VECTOR('',#451,10.);
#121=VECTOR('',#454,10.);
#122=VECTOR('',#457,10.);
#123=VECTOR('',#458,10.);
#124=VECTOR('',#465,10.);
#125=CIRCLE('',#343,2.49);
#126=CIRCLE('',#344,2.49);
#127=CIRCLE('',#346,1.);
#128=CIRCLE('',#347,1.);
#129=CIRCLE('',#350,1.);
#130=CIRCLE('',#351,1.5);
#131=CIRCLE('',#352,6.25);
#132=CIRCLE('',#353,1.5);
#133=CIRCLE('',#354,1.);
#134=CIRCLE('',#356,1.);
#135=CIRCLE('',#359,1.);
#136=CIRCLE('',#362,1.5);
#137=CIRCLE('',#365,1.5);
#138=CIRCLE('',#370,6.25);
#139=VERTEX_POINT('',#470);
#140=VERTEX_POINT('',#472);
#141=VERTEX_POINT('',#476);
#142=VERTEX_POINT('',#477);
#143=VERTEX_POINT('',#479);
#144=VERTEX_POINT('',#481);
#145=VERTEX_POINT('',#485);
#146=VERTEX_POINT('',#487);
#147=VERTEX_POINT('',#491);
#148=VERTEX_POINT('',#493);
#149=VERTEX_POINT('',#495);
#150=VERTEX_POINT('',#497);
#151=VERTEX_POINT('',#499);
#152=VERTEX_POINT('',#501);
#153=VERTEX_POINT('',#503);
#154=VERTEX_POINT('',#505);
#155=VERTEX_POINT('',#507);
#156=VERTEX_POINT('',#509);
#157=VERTEX_POINT('',#511);
#158=VERTEX_POINT('',#515);
#159=VERTEX_POINT('',#516);
#160=VERTEX_POINT('',#521);
#161=VERTEX_POINT('',#525);
#162=VERTEX_POINT('',#526);
#163=VERTEX_POINT('',#533);
#164=VERTEX_POINT('',#534);
#165=VERTEX_POINT('',#539);
#166=VERTEX_POINT('',#543);
#167=VERTEX_POINT('',#544);
#168=VERTEX_POINT('',#553);
#169=EDGE_CURVE('',#139,#139,#125,.T.);
#170=EDGE_CURVE('',#139,#140,#63,.T.);
#171=EDGE_CURVE('',#140,#140,#126,.T.);
#172=EDGE_CURVE('',#141,#142,#127,.T.);
#173=EDGE_CURVE('',#142,#143,#64,.T.);
#174=EDGE_CURVE('',#143,#144,#128,.T.);
#175=EDGE_CURVE('',#144,#141,#65,.T.);
#176=EDGE_CURVE('',#145,#142,#66,.T.);
#177=EDGE_CURVE('',#146,#145,#67,.T.);
#178=EDGE_CURVE('',#143,#146,#68,.T.);
#179=EDGE_CURVE('',#141,#147,#69,.T.);
#180=EDGE_CURVE('',#147,#148,#70,.T.);
#181=EDGE_CURVE('',#149,#148,#129,.T.);
#182=EDGE_CURVE('',#149,#150,#71,.T.);
#183=EDGE_CURVE('',#151,#150,#130,.T.);
#184=EDGE_CURVE('',#151,#152,#72,.T.);
#185=EDGE_CURVE('',#152,#153,#131,.T.);
#186=EDGE_CURVE('',#153,#154,#73,.T.);
#187=EDGE_CURVE('',#155,#154,#132,.T.);
#188=EDGE_CURVE('',#156,#155,#74,.T.);
#189=EDGE_CURVE('',#157,#156,#133,.T.);
#190=EDGE_CURVE('',#145,#157,#75,.T.);
#191=EDGE_CURVE('',#158,#159,#134,.T.);
#192=EDGE_CURVE('',#159,#149,#76,.T.);
#193=EDGE_CURVE('',#148,#158,#77,.T.);
#194=EDGE_CURVE('',#160,#147,#78,.T.);
#195=EDGE_CURVE('',#160,#158,#79,.T.);
#196=EDGE_CURVE('',#161,#162,#135,.T.);
#197=EDGE_CURVE('',#162,#157,#80,.T.);
#198=EDGE_CURVE('',#156,#161,#81,.T.);
#199=EDGE_CURVE('',#146,#162,#82,.T.);
#200=EDGE_CURVE('',#163,#164,#136,.T.);
#201=EDGE_CURVE('',#164,#151,#83,.T.);
#202=EDGE_CURVE('',#150,#163,#84,.T.);
#203=EDGE_CURVE('',#165,#164,#85,.T.);
#204=EDGE_CURVE('',#165,#152,#86,.T.);
#205=EDGE_CURVE('',#166,#167,#137,.T.);
#206=EDGE_CURVE('',#167,#155,#87,.T.);
#207=EDGE_CURVE('',#154,#166,#88,.T.);
#208=EDGE_CURVE('',#161,#167,#89,.T.);
#209=EDGE_CURVE('',#163,#159,#90,.T.);
#210=EDGE_CURVE('',#168,#153,#91,.T.);
#211=EDGE_CURVE('',#168,#166,#92,.T.);
#212=EDGE_CURVE('',#165,#168,#138,.T.);
#213=EDGE_CURVE('',#144,#160,#93,.T.);
#214=ORIENTED_EDGE('',*,*,#169,.F.);
#215=ORIENTED_EDGE('',*,*,#170,.T.);
#216=ORIENTED_EDGE('',*,*,#171,.F.);
#217=ORIENTED_EDGE('',*,*,#170,.F.);
#218=ORIENTED_EDGE('',*,*,#172,.T.);
#219=ORIENTED_EDGE('',*,*,#173,.T.);
#220=ORIENTED_EDGE('',*,*,#174,.T.);
#221=ORIENTED_EDGE('',*,*,#175,.T.);
#222=ORIENTED_EDGE('',*,*,#173,.F.);
#223=ORIENTED_EDGE('',*,*,#176,.F.);
#224=ORIENTED_EDGE('',*,*,#177,.F.);
#225=ORIENTED_EDGE('',*,*,#178,.F.);
#226=ORIENTED_EDGE('',*,*,#172,.F.);
#227=ORIENTED_EDGE('',*,*,#179,.T.);
#228=ORIENTED_EDGE('',*,*,#180,.T.);
#229=ORIENTED_EDGE('',*,*,#181,.F.);
#230=ORIENTED_EDGE('',*,*,#182,.T.);
#231=ORIENTED_EDGE('',*,*,#183,.F.);
#232=ORIENTED_EDGE('',*,*,#184,.T.);
#233=ORIENTED_EDGE('',*,*,#185,.T.);
#234=ORIENTED_EDGE('',*,*,#186,.T.);
#235=ORIENTED_EDGE('',*,*,#187,.F.);
#236=ORIENTED_EDGE('',*,*,#188,.F.);
#237=ORIENTED_EDGE('',*,*,#189,.F.);
#238=ORIENTED_EDGE('',*,*,#190,.F.);
#239=ORIENTED_EDGE('',*,*,#176,.T.);
#240=ORIENTED_EDGE('',*,*,#169,.T.);
#241=ORIENTED_EDGE('',*,*,#191,.T.);
#242=ORIENTED_EDGE('',*,*,#192,.T.);
#243=ORIENTED_EDGE('',*,*,#181,.T.);
#244=ORIENTED_EDGE('',*,*,#193,.T.);
#245=ORIENTED_EDGE('',*,*,#193,.F.);
#246=ORIENTED_EDGE('',*,*,#180,.F.);
#247=ORIENTED_EDGE('',*,*,#194,.F.);
#248=ORIENTED_EDGE('',*,*,#195,.T.);
#249=ORIENTED_EDGE('',*,*,#196,.T.);
#250=ORIENTED_EDGE('',*,*,#197,.T.);
#251=ORIENTED_EDGE('',*,*,#189,.T.);
#252=ORIENTED_EDGE('',*,*,#198,.T.);
#253=ORIENTED_EDGE('',*,*,#197,.F.);
#254=ORIENTED_EDGE('',*,*,#199,.F.);
#255=ORIENTED_EDGE('',*,*,#177,.T.);
#256=ORIENTED_EDGE('',*,*,#190,.T.);
#257=ORIENTED_EDGE('',*,*,#200,.T.);
#258=ORIENTED_EDGE('',*,*,#201,.T.);
#259=ORIENTED_EDGE('',*,*,#183,.T.);
#260=ORIENTED_EDGE('',*,*,#202,.T.);
#261=ORIENTED_EDGE('',*,*,#201,.F.);
#262=ORIENTED_EDGE('',*,*,#203,.F.);
#263=ORIENTED_EDGE('',*,*,#204,.T.);
#264=ORIENTED_EDGE('',*,*,#184,.F.);
#265=ORIENTED_EDGE('',*,*,#205,.T.);
#266=ORIENTED_EDGE('',*,*,#206,.T.);
#267=ORIENTED_EDGE('',*,*,#187,.T.);
#268=ORIENTED_EDGE('',*,*,#207,.T.);
#269=ORIENTED_EDGE('',*,*,#198,.F.);
#270=ORIENTED_EDGE('',*,*,#188,.T.);
#271=ORIENTED_EDGE('',*,*,#206,.F.);
#272=ORIENTED_EDGE('',*,*,#208,.F.);
#273=ORIENTED_EDGE('',*,*,#192,.F.);
#274=ORIENTED_EDGE('',*,*,#209,.F.);
#275=ORIENTED_EDGE('',*,*,#202,.F.);
#276=ORIENTED_EDGE('',*,*,#182,.F.);
#277=ORIENTED_EDGE('',*,*,#207,.F.);
#278=ORIENTED_EDGE('',*,*,#186,.F.);
#279=ORIENTED_EDGE('',*,*,#210,.F.);
#280=ORIENTED_EDGE('',*,*,#211,.T.);
#281=ORIENTED_EDGE('',*,*,#212,.T.);
#282=ORIENTED_EDGE('',*,*,#210,.T.);
#283=ORIENTED_EDGE('',*,*,#185,.F.);
#284=ORIENTED_EDGE('',*,*,#204,.F.);
#285=ORIENTED_EDGE('',*,*,#175,.F.);
#286=ORIENTED_EDGE('',*,*,#213,.T.);
#287=ORIENTED_EDGE('',*,*,#194,.T.);
#288=ORIENTED_EDGE('',*,*,#179,.F.);
#289=ORIENTED_EDGE('',*,*,#174,.F.);
#290=ORIENTED_EDGE('',*,*,#178,.T.);
#291=ORIENTED_EDGE('',*,*,#199,.T.);
#292=ORIENTED_EDGE('',*,*,#196,.F.);
#293=ORIENTED_EDGE('',*,*,#208,.T.);
#294=ORIENTED_EDGE('',*,*,#205,.F.);
#295=ORIENTED_EDGE('',*,*,#211,.F.);
#296=ORIENTED_EDGE('',*,*,#212,.F.);
#297=ORIENTED_EDGE('',*,*,#203,.T.);
#298=ORIENTED_EDGE('',*,*,#200,.F.);
#299=ORIENTED_EDGE('',*,*,#209,.T.);
#300=ORIENTED_EDGE('',*,*,#191,.F.);
#301=ORIENTED_EDGE('',*,*,#195,.F.);
#302=ORIENTED_EDGE('',*,*,#213,.F.);
#303=ORIENTED_EDGE('',*,*,#171,.T.);
#304=CYLINDRICAL_SURFACE('',#342,2.49);
#305=CYLINDRICAL_SURFACE('',#345,1.);
#306=CYLINDRICAL_SURFACE('',#355,1.);
#307=CYLINDRICAL_SURFACE('',#358,1.);
#308=CYLINDRICAL_SURFACE('',#361,1.5);
#309=CYLINDRICAL_SURFACE('',#364,1.5);
#310=CYLINDRICAL_SURFACE('',#369,6.25);
#311=ADVANCED_FACE('',(#27),#304,.F.);
#312=ADVANCED_FACE('',(#28),#305,.T.);
#313=ADVANCED_FACE('',(#29),#17,.T.);
#314=ADVANCED_FACE('',(#30,#15),#18,.T.);
#315=ADVANCED_FACE('',(#31),#306,.T.);
#316=ADVANCED_FACE('',(#32),#19,.T.);
#317=ADVANCED_FACE('',(#33),#307,.T.);
#318=ADVANCED_FACE('',(#34),#20,.T.);
#319=ADVANCED_FACE('',(#35),#308,.F.);
#320=ADVANCED_FACE('',(#36),#21,.T.);
#321=ADVANCED_FACE('',(#37),#309,.F.);
#322=ADVANCED_FACE('',(#38),#22,.T.);
#323=ADVANCED_FACE('',(#39),#23,.T.);
#324=ADVANCED_FACE('',(#40),#24,.T.);
#325=ADVANCED_FACE('',(#41),#310,.T.);
#326=ADVANCED_FACE('',(#42),#25,.T.);
#327=ADVANCED_FACE('',(#43,#16),#26,.F.);
#328=CLOSED_SHELL('',(#311,#312,#313,#314,#315,#316,#317,#318,#319,#320,
#321,#322,#323,#324,#325,#326,#327));
#329=DERIVED_UNIT_ELEMENT(#331,1.);
#330=DERIVED_UNIT_ELEMENT(#566,-3.);
#331=(
MASS_UNIT()
NAMED_UNIT(*)
SI_UNIT(.KILO.,.GRAM.)
);
#332=DERIVED_UNIT((#329,#330));
#333=MEASURE_REPRESENTATION_ITEM('density measure',
POSITIVE_RATIO_MEASURE(7850.),#332);
#334=PROPERTY_DEFINITION_REPRESENTATION(#339,#336);
#335=PROPERTY_DEFINITION_REPRESENTATION(#340,#337);
#336=REPRESENTATION('material name',(#338),#563);
#337=REPRESENTATION('density',(#333),#563);
#338=DESCRIPTIVE_REPRESENTATION_ITEM('Stal','Stal');
#339=PROPERTY_DEFINITION('material property','material name',#573);
#340=PROPERTY_DEFINITION('material property','density of part',#573);
#341=AXIS2_PLACEMENT_3D('',#468,#373,#374);
#342=AXIS2_PLACEMENT_3D('',#469,#375,#376);
#343=AXIS2_PLACEMENT_3D('',#471,#377,#378);
#344=AXIS2_PLACEMENT_3D('',#474,#380,#381);
#345=AXIS2_PLACEMENT_3D('',#475,#382,#383);
#346=AXIS2_PLACEMENT_3D('',#478,#384,#385);
#347=AXIS2_PLACEMENT_3D('',#482,#387,#388);
#348=AXIS2_PLACEMENT_3D('',#484,#390,#391);
#349=AXIS2_PLACEMENT_3D('',#490,#395,#396);
#350=AXIS2_PLACEMENT_3D('',#496,#399,#400);
#351=AXIS2_PLACEMENT_3D('',#500,#402,#403);
#352=AXIS2_PLACEMENT_3D('',#504,#405,#406);
#353=AXIS2_PLACEMENT_3D('',#508,#408,#409);
#354=AXIS2_PLACEMENT_3D('',#512,#411,#412);
#355=AXIS2_PLACEMENT_3D('',#514,#414,#415);
#356=AXIS2_PLACEMENT_3D('',#517,#416,#417);
#357=AXIS2_PLACEMENT_3D('',#520,#420,#421);
#358=AXIS2_PLACEMENT_3D('',#524,#424,#425);
#359=AXIS2_PLACEMENT_3D('',#527,#426,#427);
#360=AXIS2_PLACEMENT_3D('',#530,#430,#431);
#361=AXIS2_PLACEMENT_3D('',#532,#433,#434);
#362=AXIS2_PLACEMENT_3D('',#535,#435,#436);
#363=AXIS2_PLACEMENT_3D('',#538,#439,#440);
#364=AXIS2_PLACEMENT_3D('',#542,#443,#444);
#365=AXIS2_PLACEMENT_3D('',#545,#445,#446);
#366=AXIS2_PLACEMENT_3D('',#548,#449,#450);
#367=AXIS2_PLACEMENT_3D('',#550,#452,#453);
#368=AXIS2_PLACEMENT_3D('',#552,#455,#456);
#369=AXIS2_PLACEMENT_3D('',#556,#459,#460);
#370=AXIS2_PLACEMENT_3D('',#557,#461,#462);
#371=AXIS2_PLACEMENT_3D('',#558,#463,#464);
#372=AXIS2_PLACEMENT_3D('',#560,#466,#467);
#373=DIRECTION('axis',(0.,0.,1.));
#374=DIRECTION('refdir',(1.,0.,0.));
#375=DIRECTION('center_axis',(0.,0.,-1.));
#376=DIRECTION('ref_axis',(-1.,0.,0.));
#377=DIRECTION('center_axis',(0.,0.,-1.));
#378=DIRECTION('ref_axis',(-1.,0.,0.));
#379=DIRECTION('',(0.,0.,-1.));
#380=DIRECTION('center_axis',(0.,0.,1.));
#381=DIRECTION('ref_axis',(-1.,0.,0.));
#382=DIRECTION('center_axis',(0.,0.,1.));
#383=DIRECTION('ref_axis',(0.,-1.,0.));
#384=DIRECTION('center_axis',(0.,0.,-1.));
#385=DIRECTION('ref_axis',(0.,-1.,0.));
#386=DIRECTION('',(0.,0.,-1.));
#387=DIRECTION('center_axis',(0.,0.,1.));
#388=DIRECTION('ref_axis',(0.,-1.,0.));
#389=DIRECTION('',(0.,0.,1.));
#390=DIRECTION('center_axis',(-0.788024405991452,-0.615644000670696,0.));
#391=DIRECTION('ref_axis',(0.615644000670696,-0.788024405991452,0.));
#392=DIRECTION('',(0.615644000670696,-0.788024405991452,0.));
#393=DIRECTION('',(0.,0.,1.));
#394=DIRECTION('',(-0.615644000670696,0.788024405991452,0.));
#395=DIRECTION('center_axis',(0.,0.,1.));
#396=DIRECTION('ref_axis',(1.,0.,0.));
#397=DIRECTION('',(0.615644000670696,0.788024405991452,0.));
#398=DIRECTION('',(0.615661475325658,0.788010753606722,0.));
#399=DIRECTION('center_axis',(0.,0.,-1.));
#400=DIRECTION('ref_axis',(0.809589015144842,0.586997126531983,0.));
#401=DIRECTION('',(-0.940356978822402,-0.340189289043621,0.));
#402=DIRECTION('center_axis',(0.,0.,1.));
#403=DIRECTION('ref_axis',(-0.574373881263929,-0.818593088488908,0.));
#404=DIRECTION('',(0.,1.,0.));
#405=DIRECTION('center_axis',(0.,0.,1.));
#406=DIRECTION('ref_axis',(1.,0.,0.));
#407=DIRECTION('',(0.,-1.,0.));
#408=DIRECTION('center_axis',(0.,0.,1.));
#409=DIRECTION('ref_axis',(0.574373881263929,-0.818593088488908,0.));
#410=DIRECTION('',(0.940356978822402,-0.340189289043621,0.));
#411=DIRECTION('center_axis',(0.,0.,-1.));
#412=DIRECTION('ref_axis',(-0.809589015144839,0.586997126531987,0.));
#413=DIRECTION('',(-0.615661475325658,0.788010753606722,0.));
#414=DIRECTION('center_axis',(0.,0.,-1.));
#415=DIRECTION('ref_axis',(0.809589015144842,0.586997126531983,0.));
#416=DIRECTION('center_axis',(0.,0.,1.));
#417=DIRECTION('ref_axis',(0.809589015144842,0.586997126531983,0.));
#418=DIRECTION('',(0.,0.,1.));
#419=DIRECTION('',(0.,0.,-1.));
#420=DIRECTION('center_axis',(0.788010753606722,-0.615661475325658,0.));
#421=DIRECTION('ref_axis',(0.615661475325658,0.788010753606722,0.));
#422=DIRECTION('',(0.,0.,1.));
#423=DIRECTION('',(0.615661475325658,0.788010753606722,0.));
#424=DIRECTION('center_axis',(0.,0.,-1.));
#425=DIRECTION('ref_axis',(-0.809589015144839,0.586997126531987,0.));
#426=DIRECTION('center_axis',(0.,0.,1.));
#427=DIRECTION('ref_axis',(-0.809589015144839,0.586997126531987,0.));
#428=DIRECTION('',(0.,0.,1.));
#429=DIRECTION('',(0.,0.,-1.));
#430=DIRECTION('center_axis',(-0.788010753606722,-0.615661475325658,0.));
#431=DIRECTION('ref_axis',(0.615661475325658,-0.788010753606722,0.));
#432=DIRECTION('',(-0.615661475325658,0.788010753606722,0.));
#433=DIRECTION('center_axis',(0.,0.,1.));
#434=DIRECTION('ref_axis',(-0.574373881263929,-0.818593088488908,0.));
#435=DIRECTION('center_axis',(0.,0.,-1.));
#436=DIRECTION('ref_axis',(-0.574373881263929,-0.818593088488908,0.));
#437=DIRECTION('',(0.,0.,1.));
#438=DIRECTION('',(0.,0.,-1.));
#439=DIRECTION('center_axis',(1.,0.,0.));
#440=DIRECTION('ref_axis',(0.,1.,0.));
#441=DIRECTION('',(0.,-1.,0.));
#442=DIRECTION('',(0.,0.,1.));
#443=DIRECTION('center_axis',(0.,0.,1.));
#444=DIRECTION('ref_axis',(0.574373881263929,-0.818593088488908,0.));
#445=DIRECTION('center_axis',(0.,0.,-1.));
#446=DIRECTION('ref_axis',(0.574373881263929,-0.818593088488908,0.));
#447=DIRECTION('',(0.,0.,1.));
#448=DIRECTION('',(0.,0.,-1.));
#449=DIRECTION('center_axis',(0.340189289043621,0.940356978822402,0.));
#450=DIRECTION('ref_axis',(0.940356978822402,-0.340189289043621,0.));
#451=DIRECTION('',(0.940356978822402,-0.340189289043621,0.));
#452=DIRECTION('center_axis',(-0.340189289043621,0.940356978822402,0.));
#453=DIRECTION('ref_axis',(0.940356978822402,0.340189289043621,0.));
#454=DIRECTION('',(0.940356978822402,0.340189289043621,0.));
#455=DIRECTION('center_axis',(-1.,0.,0.));
#456=DIRECTION('ref_axis',(0.,-1.,0.));
#457=DIRECTION('',(0.,0.,1.));
#458=DIRECTION('',(0.,-1.,0.));
#459=DIRECTION('center_axis',(0.,0.,1.));
#460=DIRECTION('ref_axis',(1.,0.,0.));
#461=DIRECTION('center_axis',(0.,0.,1.));
#462=DIRECTION('ref_axis',(1.,0.,0.));
#463=DIRECTION('center_axis',(0.788024405991452,-0.615644000670696,0.));
#464=DIRECTION('ref_axis',(0.615644000670696,0.788024405991452,0.));
#465=DIRECTION('',(0.615644000670696,0.788024405991452,0.));
#466=DIRECTION('center_axis',(0.,0.,1.));
#467=DIRECTION('ref_axis',(1.,0.,0.));
#468=CARTESIAN_POINT('',(0.,0.,0.));
#469=CARTESIAN_POINT('Origin',(28.,28.,50.));
#470=CARTESIAN_POINT('',(30.49,28.,50.));
#471=CARTESIAN_POINT('Origin',(28.,28.,50.));
#472=CARTESIAN_POINT('',(30.49,28.,45.));
#473=CARTESIAN_POINT('',(30.49,28.,50.));
#474=CARTESIAN_POINT('Origin',(28.,28.,45.));
#475=CARTESIAN_POINT('Origin',(28.,-28.3756855149574,45.));
#476=CARTESIAN_POINT('',(28.7880244059915,-28.9913295156281,50.));
#477=CARTESIAN_POINT('',(27.2119755940085,-28.9913295156281,50.));
#478=CARTESIAN_POINT('Origin',(28.,-28.3756855149574,50.));
#479=CARTESIAN_POINT('',(27.2119755940085,-28.9913295156281,45.));
#480=CARTESIAN_POINT('',(27.2119755940085,-28.9913295156281,45.));
#481=CARTESIAN_POINT('',(28.7880244059915,-28.9913295156281,45.));
#482=CARTESIAN_POINT('Origin',(28.,-28.3756855149574,45.));
#483=CARTESIAN_POINT('',(28.7880244059915,-28.9913295156281,45.));
#484=CARTESIAN_POINT('Origin',(21.75,-22.,45.));
#485=CARTESIAN_POINT('',(21.75,-22.,50.));
#486=CARTESIAN_POINT('',(28.,-30.0000008642673,50.));
#487=CARTESIAN_POINT('',(21.75,-22.,45.));
#488=CARTESIAN_POINT('',(21.75,-22.,45.));
#489=CARTESIAN_POINT('',(28.,-30.0000008642673,45.));
#490=CARTESIAN_POINT('Origin',(28.,2.12499956786632,50.));
#491=CARTESIAN_POINT('',(34.25,-22.,50.));
#492=CARTESIAN_POINT('',(28.,-30.0000008642673,50.));
#493=CARTESIAN_POINT('',(43.0019610766912,-10.7980006546096,50.));
#494=CARTESIAN_POINT('',(34.25,-22.,50.));
#495=CARTESIAN_POINT('',(41.8737610340408,-9.24198220046157,50.));
#496=CARTESIAN_POINT('Origin',(42.2139503230844,-10.182339179284,50.));
#497=CARTESIAN_POINT('',(36.2602839335654,-11.2727479914113,50.));
#498=CARTESIAN_POINT('',(45.1411631760129,-8.05994682801284,50.));
#499=CARTESIAN_POINT('',(34.25,-9.86221252317769,50.));
#500=CARTESIAN_POINT('Origin',(35.75,-9.86221252317769,50.));
#501=CARTESIAN_POINT('',(34.25,28.,50.));
#502=CARTESIAN_POINT('',(34.25,28.,50.));
#503=CARTESIAN_POINT('',(21.75,28.,50.));
#504=CARTESIAN_POINT('Origin',(28.,28.,50.));
#505=CARTESIAN_POINT('',(21.75,-9.86221252317769,50.));
#506=CARTESIAN_POINT('',(21.75,28.,50.));
#507=CARTESIAN_POINT('',(19.7397160664346,-11.2727479914113,50.));
#508=CARTESIAN_POINT('Origin',(20.25,-9.86221252317769,50.));
#509=CARTESIAN_POINT('',(14.1262389659592,-9.24198220046157,50.));
#510=CARTESIAN_POINT('',(10.8588368239871,-8.05994682801284,50.));
#511=CARTESIAN_POINT('',(12.9980389233089,-10.7980006546096,50.));
#512=CARTESIAN_POINT('Origin',(13.7860496769156,-10.182339179284,50.));
#513=CARTESIAN_POINT('',(13.9371442006154,-12.0000005960464,50.));
#514=CARTESIAN_POINT('Origin',(42.2139503230844,-10.182339179284,47.5));
#515=CARTESIAN_POINT('',(43.0019610766912,-10.7980006546096,45.));
#516=CARTESIAN_POINT('',(41.8737610340408,-9.24198220046157,45.));
#517=CARTESIAN_POINT('Origin',(42.2139503230844,-10.182339179284,45.));
#518=CARTESIAN_POINT('',(41.8737610340408,-9.24198220046157,47.5));
#519=CARTESIAN_POINT('',(43.0019610766912,-10.7980006546096,47.5));
#520=CARTESIAN_POINT('Origin',(34.25,-22.,45.));
#521=CARTESIAN_POINT('',(34.25,-22.,45.));
#522=CARTESIAN_POINT('',(34.25,-22.,45.));
#523=CARTESIAN_POINT('',(34.25,-22.,45.));
#524=CARTESIAN_POINT('Origin',(13.7860496769156,-10.182339179284,47.5));
#525=CARTESIAN_POINT('',(14.1262389659592,-9.24198220046157,45.));
#526=CARTESIAN_POINT('',(12.9980389233089,-10.7980006546096,45.));
#527=CARTESIAN_POINT('Origin',(13.7860496769156,-10.182339179284,45.));
#528=CARTESIAN_POINT('',(12.9980389233089,-10.7980006546096,47.5));
#529=CARTESIAN_POINT('',(14.1262389659592,-9.24198220046157,47.5));
#530=CARTESIAN_POINT('Origin',(13.9371442006154,-12.0000005960464,45.));
#531=CARTESIAN_POINT('',(13.9371442006154,-12.0000005960464,45.));
#532=CARTESIAN_POINT('Origin',(35.75,-9.86221252317769,47.5));
#533=CARTESIAN_POINT('',(36.2602839335654,-11.2727479914113,45.));
#534=CARTESIAN_POINT('',(34.25,-9.86221252317769,45.));
#535=CARTESIAN_POINT('Origin',(35.75,-9.86221252317769,45.));
#536=CARTESIAN_POINT('',(34.25,-9.86221252317769,47.5));
#537=CARTESIAN_POINT('',(36.2602839335654,-11.2727479914113,47.5));
#538=CARTESIAN_POINT('Origin',(34.25,-12.0000005960464,45.));
#539=CARTESIAN_POINT('',(34.25,28.,45.));
#540=CARTESIAN_POINT('',(34.25,28.,45.));
#541=CARTESIAN_POINT('',(34.25,28.,45.));
#542=CARTESIAN_POINT('Origin',(20.25,-9.86221252317769,47.5));
#543=CARTESIAN_POINT('',(21.75,-9.86221252317769,45.));
#544=CARTESIAN_POINT('',(19.7397160664346,-11.2727479914113,45.));
#545=CARTESIAN_POINT('Origin',(20.25,-9.86221252317769,45.));
#546=CARTESIAN_POINT('',(19.7397160664346,-11.2727479914113,47.5));
#547=CARTESIAN_POINT('',(21.75,-9.86221252317769,47.5));
#548=CARTESIAN_POINT('Origin',(10.8588368239871,-8.05994682801284,50.));
#549=CARTESIAN_POINT('',(10.8588368239871,-8.05994682801284,45.));
#550=CARTESIAN_POINT('Origin',(34.25,-12.0000005960464,50.));
#551=CARTESIAN_POINT('',(45.1411631760129,-8.05994682801284,45.));
#552=CARTESIAN_POINT('Origin',(21.75,28.,45.));
#553=CARTESIAN_POINT('',(21.75,28.,45.));
#554=CARTESIAN_POINT('',(21.75,28.,45.));
#555=CARTESIAN_POINT('',(21.75,28.,45.));
#556=CARTESIAN_POINT('Origin',(28.,28.,45.));
#557=CARTESIAN_POINT('Origin',(28.,28.,45.));
#558=CARTESIAN_POINT('Origin',(28.,-30.0000008642673,45.));
#559=CARTESIAN_POINT('',(28.,-30.0000008642673,45.));
#560=CARTESIAN_POINT('Origin',(28.,2.12499956786632,45.));
#561=UNCERTAINTY_MEASURE_WITH_UNIT(LENGTH_MEASURE(0.01),#565,
'DISTANCE_ACCURACY_VALUE',
'Maximum model space distance between geometric entities at asserted c
onnectivities');
#562=UNCERTAINTY_MEASURE_WITH_UNIT(LENGTH_MEASURE(0.01),#565,
'DISTANCE_ACCURACY_VALUE',
'Maximum model space distance between geometric entities at asserted c
onnectivities');
#563=(
GEOMETRIC_REPRESENTATION_CONTEXT(3)
GLOBAL_UNCERTAINTY_ASSIGNED_CONTEXT((#561))
GLOBAL_UNIT_ASSIGNED_CONTEXT((#565,#567,#568))
REPRESENTATION_CONTEXT('','3D')
);
#564=(
GEOMETRIC_REPRESENTATION_CONTEXT(3)
GLOBAL_UNCERTAINTY_ASSIGNED_CONTEXT((#562))
GLOBAL_UNIT_ASSIGNED_CONTEXT((#565,#567,#568))
REPRESENTATION_CONTEXT('','3D')
);
#565=(
LENGTH_UNIT()
NAMED_UNIT(*)
SI_UNIT(.MILLI.,.METRE.)
);
#566=(
LENGTH_UNIT()
NAMED_UNIT(*)
SI_UNIT($,.METRE.)
);
#567=(
NAMED_UNIT(*)
PLANE_ANGLE_UNIT()
SI_UNIT($,.RADIAN.)
);
#568=(
NAMED_UNIT(*)
SI_UNIT($,.STERADIAN.)
SOLID_ANGLE_UNIT()
);
#569=SHAPE_DEFINITION_REPRESENTATION(#570,#571);
#570=PRODUCT_DEFINITION_SHAPE('',$,#573);
#571=SHAPE_REPRESENTATION('',(#341),#563);
#572=PRODUCT_DEFINITION_CONTEXT('part definition',#577,'design');
#573=PRODUCT_DEFINITION('Encoder','Encoder v12',#574,#572);
#574=PRODUCT_DEFINITION_FORMATION('',$,#579);
#575=PRODUCT_RELATED_PRODUCT_CATEGORY('Encoder v12','Encoder v12',(#579));
#576=APPLICATION_PROTOCOL_DEFINITION('international standard',
'automotive_design',2009,#577);
#577=APPLICATION_CONTEXT(
'Core Data for Automotive Mechanical Design Process');
#578=PRODUCT_CONTEXT('part definition',#577,'mechanical');
#579=PRODUCT('Encoder','Encoder v12',$,(#578));
#580=PRESENTATION_STYLE_ASSIGNMENT((#581));
#581=SURFACE_STYLE_USAGE(.BOTH.,#582);
#582=SURFACE_SIDE_STYLE('',(#583));
#583=SURFACE_STYLE_FILL_AREA(#584);
#584=FILL_AREA_STYLE('Stal \X2\2014\X0\ satynowa',(#585));
#585=FILL_AREA_STYLE_COLOUR('Stal \X2\2014\X0\ satynowa',#586);
#586=COLOUR_RGB('Stal \X2\2014\X0\ satynowa',0.627450980392157,0.627450980392157,
0.627450980392157);
ENDSEC;
END-ISO-10303-21;
