ISO-10303-21;
HEADER;
/* Generated by software containing ST-Developer
 * from STEP Tools, Inc. (www.steptools.com) 
 */

FILE_DESCRIPTION(
/* description */ (''),
/* implementation_level */ '2;1');

FILE_NAME(
/* name */ 'EncoderTop.step',
/* time_stamp */ '2026-06-08T15:53:34+02:00',
/* author */ (''),
/* organization */ (''),
/* preprocessor_version */ 'ST-DEVELOPER v20.1',
/* originating_system */ 'Autodesk Translation Framework v15.8.0.0',
/* authorisation */ '');

FILE_SCHEMA (('AUTOMOTIVE_DESIGN { 1 0 10303 214 3 1 1 }'));
ENDSEC;

DATA;
#10=MECHANICAL_DESIGN_GEOMETRIC_PRESENTATION_REPRESENTATION('',(#13),#1494);
#11=SHAPE_REPRESENTATION_RELATIONSHIP('SRR','None',#1501,#12);
#12=ADVANCED_BREP_SHAPE_REPRESENTATION('',(#14),#1493);
#13=STYLED_ITEM('',(#1510),#14);
#14=MANIFOLD_SOLID_BREP('Bry\X2\0142\X0\a1',#883);
#15=FACE_BOUND('',#113,.T.);
#16=FACE_BOUND('',#114,.T.);
#17=FACE_BOUND('',#115,.T.);
#18=FACE_BOUND('',#116,.T.);
#19=FACE_BOUND('',#117,.T.);
#20=FACE_BOUND('',#120,.T.);
#21=FACE_BOUND('',#121,.T.);
#22=FACE_BOUND('',#122,.T.);
#23=FACE_BOUND('',#123,.T.);
#24=FACE_BOUND('',#141,.T.);
#25=FACE_BOUND('',#142,.T.);
#26=FACE_BOUND('',#143,.T.);
#27=FACE_BOUND('',#144,.T.);
#28=FACE_BOUND('',#145,.T.);
#29=FACE_BOUND('',#146,.T.);
#30=FACE_BOUND('',#147,.T.);
#31=FACE_BOUND('',#166,.T.);
#32=PLANE('',#900);
#33=PLANE('',#904);
#34=PLANE('',#908);
#35=PLANE('',#912);
#36=PLANE('',#913);
#37=PLANE('',#925);
#38=PLANE('',#933);
#39=PLANE('',#936);
#40=PLANE('',#939);
#41=PLANE('',#945);
#42=PLANE('',#946);
#43=PLANE('',#947);
#44=PLANE('',#948);
#45=PLANE('',#959);
#46=PLANE('',#966);
#47=PLANE('',#969);
#48=PLANE('',#970);
#49=PLANE('',#971);
#50=PLANE('',#972);
#51=PLANE('',#973);
#52=PLANE('',#974);
#53=PLANE('',#975);
#54=PLANE('',#977);
#55=PLANE('',#979);
#56=PLANE('',#981);
#57=PLANE('',#983);
#58=FACE_OUTER_BOUND('',#104,.T.);
#59=FACE_OUTER_BOUND('',#105,.T.);
#60=FACE_OUTER_BOUND('',#106,.T.);
#61=FACE_OUTER_BOUND('',#107,.T.);
#62=FACE_OUTER_BOUND('',#108,.T.);
#63=FACE_OUTER_BOUND('',#109,.T.);
#64=FACE_OUTER_BOUND('',#110,.T.);
#65=FACE_OUTER_BOUND('',#111,.T.);
#66=FACE_OUTER_BOUND('',#112,.T.);
#67=FACE_OUTER_BOUND('',#118,.T.);
#68=FACE_OUTER_BOUND('',#119,.T.);
#69=FACE_OUTER_BOUND('',#124,.T.);
#70=FACE_OUTER_BOUND('',#125,.T.);
#71=FACE_OUTER_BOUND('',#126,.T.);
#72=FACE_OUTER_BOUND('',#127,.T.);
#73=FACE_OUTER_BOUND('',#128,.T.);
#74=FACE_OUTER_BOUND('',#129,.T.);
#75=FACE_OUTER_BOUND('',#130,.T.);
#76=FACE_OUTER_BOUND('',#131,.T.);
#77=FACE_OUTER_BOUND('',#132,.T.);
#78=FACE_OUTER_BOUND('',#133,.T.);
#79=FACE_OUTER_BOUND('',#134,.T.);
#80=FACE_OUTER_BOUND('',#135,.T.);
#81=FACE_OUTER_BOUND('',#136,.T.);
#82=FACE_OUTER_BOUND('',#137,.T.);
#83=FACE_OUTER_BOUND('',#138,.T.);
#84=FACE_OUTER_BOUND('',#139,.T.);
#85=FACE_OUTER_BOUND('',#140,.T.);
#86=FACE_OUTER_BOUND('',#148,.T.);
#87=FACE_OUTER_BOUND('',#149,.T.);
#88=FACE_OUTER_BOUND('',#150,.T.);
#89=FACE_OUTER_BOUND('',#151,.T.);
#90=FACE_OUTER_BOUND('',#152,.T.);
#91=FACE_OUTER_BOUND('',#153,.T.);
#92=FACE_OUTER_BOUND('',#154,.T.);
#93=FACE_OUTER_BOUND('',#155,.T.);
#94=FACE_OUTER_BOUND('',#156,.T.);
#95=FACE_OUTER_BOUND('',#157,.T.);
#96=FACE_OUTER_BOUND('',#158,.T.);
#97=FACE_OUTER_BOUND('',#159,.T.);
#98=FACE_OUTER_BOUND('',#160,.T.);
#99=FACE_OUTER_BOUND('',#161,.T.);
#100=FACE_OUTER_BOUND('',#162,.T.);
#101=FACE_OUTER_BOUND('',#163,.T.);
#102=FACE_OUTER_BOUND('',#164,.T.);
#103=FACE_OUTER_BOUND('',#165,.T.);
#104=EDGE_LOOP('',(#573,#574,#575,#576));
#105=EDGE_LOOP('',(#577,#578,#579,#580));
#106=EDGE_LOOP('',(#581,#582,#583,#584));
#107=EDGE_LOOP('',(#585,#586,#587,#588));
#108=EDGE_LOOP('',(#589,#590,#591,#592));
#109=EDGE_LOOP('',(#593,#594,#595,#596));
#110=EDGE_LOOP('',(#597,#598,#599,#600));
#111=EDGE_LOOP('',(#601,#602,#603,#604));
#112=EDGE_LOOP('',(#605,#606,#607,#608,#609,#610,#611,#612));
#113=EDGE_LOOP('',(#613,#614,#615,#616,#617,#618,#619,#620));
#114=EDGE_LOOP('',(#621));
#115=EDGE_LOOP('',(#622));
#116=EDGE_LOOP('',(#623));
#117=EDGE_LOOP('',(#624));
#118=EDGE_LOOP('',(#625,#626,#627,#628));
#119=EDGE_LOOP('',(#629,#630,#631,#632,#633,#634,#635,#636));
#120=EDGE_LOOP('',(#637,#638,#639,#640,#641,#642));
#121=EDGE_LOOP('',(#643,#644,#645,#646));
#122=EDGE_LOOP('',(#647));
#123=EDGE_LOOP('',(#648));
#124=EDGE_LOOP('',(#649,#650,#651,#652));
#125=EDGE_LOOP('',(#653,#654,#655,#656));
#126=EDGE_LOOP('',(#657,#658,#659,#660));
#127=EDGE_LOOP('',(#661,#662,#663,#664));
#128=EDGE_LOOP('',(#665,#666,#667,#668));
#129=EDGE_LOOP('',(#669,#670,#671,#672));
#130=EDGE_LOOP('',(#673,#674,#675,#676,#677,#678,#679));
#131=EDGE_LOOP('',(#680,#681,#682,#683));
#132=EDGE_LOOP('',(#684,#685,#686,#687));
#133=EDGE_LOOP('',(#688,#689,#690,#691));
#134=EDGE_LOOP('',(#692,#693,#694,#695));
#135=EDGE_LOOP('',(#696,#697,#698,#699));
#136=EDGE_LOOP('',(#700,#701,#702,#703));
#137=EDGE_LOOP('',(#704,#705,#706,#707));
#138=EDGE_LOOP('',(#708,#709,#710,#711));
#139=EDGE_LOOP('',(#712,#713,#714,#715));
#140=EDGE_LOOP('',(#716,#717,#718,#719,#720,#721,#722,#723));
#141=EDGE_LOOP('',(#724));
#142=EDGE_LOOP('',(#725));
#143=EDGE_LOOP('',(#726));
#144=EDGE_LOOP('',(#727));
#145=EDGE_LOOP('',(#728));
#146=EDGE_LOOP('',(#729,#730,#731,#732,#733));
#147=EDGE_LOOP('',(#734,#735,#736,#737));
#148=EDGE_LOOP('',(#738,#739,#740,#741));
#149=EDGE_LOOP('',(#742,#743,#744,#745));
#150=EDGE_LOOP('',(#746,#747,#748,#749));
#151=EDGE_LOOP('',(#750,#751));
#152=EDGE_LOOP('',(#752));
#153=EDGE_LOOP('',(#753,#754,#755,#756));
#154=EDGE_LOOP('',(#757,#758,#759,#760));
#155=EDGE_LOOP('',(#761,#762,#763,#764));
#156=EDGE_LOOP('',(#765,#766,#767,#768));
#157=EDGE_LOOP('',(#769,#770,#771,#772));
#158=EDGE_LOOP('',(#773,#774,#775,#776));
#159=EDGE_LOOP('',(#777,#778,#779,#780));
#160=EDGE_LOOP('',(#781,#782,#783,#784));
#161=EDGE_LOOP('',(#785,#786,#787,#788));
#162=EDGE_LOOP('',(#789,#790,#791,#792));
#163=EDGE_LOOP('',(#793,#794,#795,#796));
#164=EDGE_LOOP('',(#797,#798,#799,#800));
#165=EDGE_LOOP('',(#801,#802,#803,#804,#805,#806,#807,#808));
#166=EDGE_LOOP('',(#809,#810,#811,#812,#813,#814,#815,#816));
#167=LINE('',#1247,#248);
#168=LINE('',#1250,#249);
#169=LINE('',#1253,#250);
#170=LINE('',#1255,#251);
#171=LINE('',#1256,#252);
#172=LINE('',#1262,#253);
#173=LINE('',#1265,#254);
#174=LINE('',#1267,#255);
#175=LINE('',#1268,#256);
#176=LINE('',#1274,#257);
#177=LINE('',#1277,#258);
#178=LINE('',#1279,#259);
#179=LINE('',#1280,#260);
#180=LINE('',#1286,#261);
#181=LINE('',#1288,#262);
#182=LINE('',#1289,#263);
#183=LINE('',#1293,#264);
#184=LINE('',#1297,#265);
#185=LINE('',#1301,#266);
#186=LINE('',#1305,#267);
#187=LINE('',#1320,#268);
#188=LINE('',#1323,#269);
#189=LINE('',#1326,#270);
#190=LINE('',#1330,#271);
#191=LINE('',#1334,#272);
#192=LINE('',#1337,#273);
#193=LINE('',#1340,#274);
#194=LINE('',#1342,#275);
#195=LINE('',#1344,#276);
#196=LINE('',#1349,#277);
#197=LINE('',#1352,#278);
#198=LINE('',#1354,#279);
#199=LINE('',#1356,#280);
#200=LINE('',#1357,#281);
#201=LINE('',#1364,#282);
#202=LINE('',#1365,#283);
#203=LINE('',#1368,#284);
#204=LINE('',#1371,#285);
#205=LINE('',#1374,#286);
#206=LINE('',#1375,#287);
#207=LINE('',#1378,#288);
#208=LINE('',#1382,#289);
#209=LINE('',#1383,#290);
#210=LINE('',#1388,#291);
#211=LINE('',#1391,#292);
#212=LINE('',#1393,#293);
#213=LINE('',#1396,#294);
#214=LINE('',#1399,#295);
#215=LINE('',#1400,#296);
#216=LINE('',#1403,#297);
#217=LINE('',#1404,#298);
#218=LINE('',#1407,#299);
#219=LINE('',#1409,#300);
#220=LINE('',#1410,#301);
#221=LINE('',#1413,#302);
#222=LINE('',#1414,#303);
#223=LINE('',#1417,#304);
#224=LINE('',#1421,#305);
#225=LINE('',#1425,#306);
#226=LINE('',#1429,#307);
#227=LINE('',#1433,#308);
#228=LINE('',#1440,#309);
#229=LINE('',#1444,#310);
#230=LINE('',#1448,#311);
#231=LINE('',#1451,#312);
#232=LINE('',#1455,#313);
#233=LINE('',#1456,#314);
#234=LINE('',#1458,#315);
#235=LINE('',#1459,#316);
#236=LINE('',#1461,#317);
#237=LINE('',#1463,#318);
#238=LINE('',#1470,#319);
#239=LINE('',#1473,#320);
#240=LINE('',#1475,#321);
#241=LINE('',#1476,#322);
#242=LINE('',#1478,#323);
#243=LINE('',#1480,#324);
#244=LINE('',#1482,#325);
#245=LINE('',#1484,#326);
#246=LINE('',#1486,#327);
#247=LINE('',#1488,#328);
#248=VECTOR('',#990,10.);
#249=VECTOR('',#993,10.);
#250=VECTOR('',#996,10.);
#251=VECTOR('',#997,10.);
#252=VECTOR('',#998,10.);
#253=VECTOR('',#1005,10.);
#254=VECTOR('',#1008,10.);
#255=VECTOR('',#1009,10.);
#256=VECTOR('',#1010,10.);
#257=VECTOR('',#1017,10.);
#258=VECTOR('',#1020,10.);
#259=VECTOR('',#1021,10.);
#260=VECTOR('',#1022,10.);
#261=VECTOR('',#1029,10.);
#262=VECTOR('',#1032,10.);
#263=VECTOR('',#1033,10.);
#264=VECTOR('',#1036,10.);
#265=VECTOR('',#1039,10.);
#266=VECTOR('',#1042,10.);
#267=VECTOR('',#1045,10.);
#268=VECTOR('',#1060,10.);
#269=VECTOR('',#1063,10.);
#270=VECTOR('',#1066,10.);
#271=VECTOR('',#1069,10.);
#272=VECTOR('',#1072,10.);
#273=VECTOR('',#1075,10.);
#274=VECTOR('',#1076,10.);
#275=VECTOR('',#1077,10.);
#276=VECTOR('',#1078,10.);
#277=VECTOR('',#1083,10.);
#278=VECTOR('',#1084,10.);
#279=VECTOR('',#1085,10.);
#280=VECTOR('',#1086,10.);
#281=VECTOR('',#1087,10.);
#282=VECTOR('',#1094,10.);
#283=VECTOR('',#1095,10.);
#284=VECTOR('',#1098,10.);
#285=VECTOR('',#1101,10.);
#286=VECTOR('',#1104,10.);
#287=VECTOR('',#1105,10.);
#288=VECTOR('',#1108,10.);
#289=VECTOR('',#1113,10.);
#290=VECTOR('',#1114,10.);
#291=VECTOR('',#1121,10.);
#292=VECTOR('',#1124,10.);
#293=VECTOR('',#1125,1.9);
#294=VECTOR('',#1128,1.9);
#295=VECTOR('',#1131,10.);
#296=VECTOR('',#1132,10.);
#297=VECTOR('',#1135,10.);
#298=VECTOR('',#1136,10.);
#299=VECTOR('',#1139,10.);
#300=VECTOR('',#1140,10.);
#301=VECTOR('',#1141,10.);
#302=VECTOR('',#1144,10.);
#303=VECTOR('',#1145,10.);
#304=VECTOR('',#1148,1.75000000000001);
#305=VECTOR('',#1153,1.7);
#306=VECTOR('',#1158,1.75);
#307=VECTOR('',#1163,1.75);
#308=VECTOR('',#1168,1.65);
#309=VECTOR('',#1175,10.);
#310=VECTOR('',#1178,10.);
#311=VECTOR('',#1181,10.);
#312=VECTOR('',#1184,10.);
#313=VECTOR('',#1187,10.);
#314=VECTOR('',#1188,10.);
#315=VECTOR('',#1189,10.);
#316=VECTOR('',#1190,10.);
#317=VECTOR('',#1193,2.35);
#318=VECTOR('',#1196,10.);
#319=VECTOR('',#1209,10.);
#320=VECTOR('',#1214,10.);
#321=VECTOR('',#1217,10.);
#322=VECTOR('',#1218,10.);
#323=VECTOR('',#1221,10.);
#324=VECTOR('',#1224,10.);
#325=VECTOR('',#1227,10.);
#326=VECTOR('',#1230,10.);
#327=VECTOR('',#1233,10.);
#328=VECTOR('',#1236,10.);
#329=CIRCLE('',#898,4.1);
#330=CIRCLE('',#899,4.1);
#331=CIRCLE('',#902,4.09999999999997);
#332=CIRCLE('',#903,4.09999999999997);
#333=CIRCLE('',#906,4.1);
#334=CIRCLE('',#907,4.1);
#335=CIRCLE('',#910,4.1);
#336=CIRCLE('',#911,4.1);
#337=CIRCLE('',#914,4.99999999999999);
#338=CIRCLE('',#915,5.);
#339=CIRCLE('',#916,4.99999999999999);
#340=CIRCLE('',#917,4.99999999999999);
#341=CIRCLE('',#918,1.75000000000001);
#342=CIRCLE('',#919,1.75);
#343=CIRCLE('',#920,1.7);
#344=CIRCLE('',#921,1.75);
#345=CIRCLE('',#923,2.);
#346=CIRCLE('',#924,2.);
#347=CIRCLE('',#926,2.);
#348=CIRCLE('',#927,2.);
#349=CIRCLE('',#928,2.);
#350=CIRCLE('',#929,1.5);
#351=CIRCLE('',#930,1.9);
#352=CIRCLE('',#931,2.35);
#353=CIRCLE('',#932,1.65);
#354=CIRCLE('',#935,2.);
#355=CIRCLE('',#938,2.);
#356=CIRCLE('',#941,2.);
#357=CIRCLE('',#943,1.9);
#358=CIRCLE('',#944,1.9);
#359=CIRCLE('',#950,1.75000000000001);
#360=CIRCLE('',#952,1.7);
#361=CIRCLE('',#954,1.75);
#362=CIRCLE('',#956,1.75);
#363=CIRCLE('',#958,1.65);
#364=CIRCLE('',#960,4.99999999999999);
#365=CIRCLE('',#961,4.99999999999999);
#366=CIRCLE('',#962,4.99999999999999);
#367=CIRCLE('',#963,5.);
#368=CIRCLE('',#964,2.35);
#369=CIRCLE('',#968,1.5);
#370=VERTEX_POINT('',#1243);
#371=VERTEX_POINT('',#1244);
#372=VERTEX_POINT('',#1246);
#373=VERTEX_POINT('',#1248);
#374=VERTEX_POINT('',#1252);
#375=VERTEX_POINT('',#1254);
#376=VERTEX_POINT('',#1258);
#377=VERTEX_POINT('',#1260);
#378=VERTEX_POINT('',#1264);
#379=VERTEX_POINT('',#1266);
#380=VERTEX_POINT('',#1270);
#381=VERTEX_POINT('',#1272);
#382=VERTEX_POINT('',#1276);
#383=VERTEX_POINT('',#1278);
#384=VERTEX_POINT('',#1282);
#385=VERTEX_POINT('',#1284);
#386=VERTEX_POINT('',#1291);
#387=VERTEX_POINT('',#1292);
#388=VERTEX_POINT('',#1294);
#389=VERTEX_POINT('',#1296);
#390=VERTEX_POINT('',#1298);
#391=VERTEX_POINT('',#1300);
#392=VERTEX_POINT('',#1302);
#393=VERTEX_POINT('',#1304);
#394=VERTEX_POINT('',#1307);
#395=VERTEX_POINT('',#1309);
#396=VERTEX_POINT('',#1311);
#397=VERTEX_POINT('',#1313);
#398=VERTEX_POINT('',#1316);
#399=VERTEX_POINT('',#1317);
#400=VERTEX_POINT('',#1319);
#401=VERTEX_POINT('',#1321);
#402=VERTEX_POINT('',#1325);
#403=VERTEX_POINT('',#1327);
#404=VERTEX_POINT('',#1329);
#405=VERTEX_POINT('',#1331);
#406=VERTEX_POINT('',#1333);
#407=VERTEX_POINT('',#1335);
#408=VERTEX_POINT('',#1338);
#409=VERTEX_POINT('',#1339);
#410=VERTEX_POINT('',#1341);
#411=VERTEX_POINT('',#1343);
#412=VERTEX_POINT('',#1345);
#413=VERTEX_POINT('',#1347);
#414=VERTEX_POINT('',#1350);
#415=VERTEX_POINT('',#1351);
#416=VERTEX_POINT('',#1353);
#417=VERTEX_POINT('',#1355);
#418=VERTEX_POINT('',#1358);
#419=VERTEX_POINT('',#1360);
#420=VERTEX_POINT('',#1363);
#421=VERTEX_POINT('',#1367);
#422=VERTEX_POINT('',#1369);
#423=VERTEX_POINT('',#1373);
#424=VERTEX_POINT('',#1377);
#425=VERTEX_POINT('',#1381);
#426=VERTEX_POINT('',#1387);
#427=VERTEX_POINT('',#1389);
#428=VERTEX_POINT('',#1392);
#429=VERTEX_POINT('',#1394);
#430=VERTEX_POINT('',#1398);
#431=VERTEX_POINT('',#1402);
#432=VERTEX_POINT('',#1406);
#433=VERTEX_POINT('',#1408);
#434=VERTEX_POINT('',#1412);
#435=VERTEX_POINT('',#1416);
#436=VERTEX_POINT('',#1420);
#437=VERTEX_POINT('',#1424);
#438=VERTEX_POINT('',#1428);
#439=VERTEX_POINT('',#1432);
#440=VERTEX_POINT('',#1436);
#441=VERTEX_POINT('',#1437);
#442=VERTEX_POINT('',#1439);
#443=VERTEX_POINT('',#1441);
#444=VERTEX_POINT('',#1443);
#445=VERTEX_POINT('',#1445);
#446=VERTEX_POINT('',#1447);
#447=VERTEX_POINT('',#1449);
#448=VERTEX_POINT('',#1452);
#449=VERTEX_POINT('',#1454);
#450=VERTEX_POINT('',#1457);
#451=EDGE_CURVE('',#370,#371,#329,.T.);
#452=EDGE_CURVE('',#370,#372,#167,.T.);
#453=EDGE_CURVE('',#373,#372,#330,.T.);
#454=EDGE_CURVE('',#371,#373,#168,.T.);
#455=EDGE_CURVE('',#371,#374,#169,.T.);
#456=EDGE_CURVE('',#375,#373,#170,.T.);
#457=EDGE_CURVE('',#374,#375,#171,.T.);
#458=EDGE_CURVE('',#374,#376,#331,.T.);
#459=EDGE_CURVE('',#377,#375,#332,.T.);
#460=EDGE_CURVE('',#376,#377,#172,.T.);
#461=EDGE_CURVE('',#376,#378,#173,.T.);
#462=EDGE_CURVE('',#379,#377,#174,.T.);
#463=EDGE_CURVE('',#378,#379,#175,.T.);
#464=EDGE_CURVE('',#378,#380,#333,.T.);
#465=EDGE_CURVE('',#381,#379,#334,.T.);
#466=EDGE_CURVE('',#380,#381,#176,.T.);
#467=EDGE_CURVE('',#380,#382,#177,.T.);
#468=EDGE_CURVE('',#383,#381,#178,.T.);
#469=EDGE_CURVE('',#382,#383,#179,.T.);
#470=EDGE_CURVE('',#382,#384,#335,.T.);
#471=EDGE_CURVE('',#385,#383,#336,.T.);
#472=EDGE_CURVE('',#384,#385,#180,.T.);
#473=EDGE_CURVE('',#384,#370,#181,.T.);
#474=EDGE_CURVE('',#372,#385,#182,.T.);
#475=EDGE_CURVE('',#386,#387,#183,.T.);
#476=EDGE_CURVE('',#387,#388,#337,.T.);
#477=EDGE_CURVE('',#388,#389,#184,.T.);
#478=EDGE_CURVE('',#389,#390,#338,.T.);
#479=EDGE_CURVE('',#390,#391,#185,.T.);
#480=EDGE_CURVE('',#391,#392,#339,.T.);
#481=EDGE_CURVE('',#392,#393,#186,.T.);
#482=EDGE_CURVE('',#393,#386,#340,.T.);
#483=EDGE_CURVE('',#394,#394,#341,.T.);
#484=EDGE_CURVE('',#395,#395,#342,.T.);
#485=EDGE_CURVE('',#396,#396,#343,.T.);
#486=EDGE_CURVE('',#397,#397,#344,.T.);
#487=EDGE_CURVE('',#398,#399,#345,.T.);
#488=EDGE_CURVE('',#398,#400,#187,.T.);
#489=EDGE_CURVE('',#400,#401,#346,.T.);
#490=EDGE_CURVE('',#401,#399,#188,.T.);
#491=EDGE_CURVE('',#402,#399,#189,.T.);
#492=EDGE_CURVE('',#402,#403,#347,.T.);
#493=EDGE_CURVE('',#404,#403,#190,.T.);
#494=EDGE_CURVE('',#404,#405,#348,.T.);
#495=EDGE_CURVE('',#406,#405,#191,.T.);
#496=EDGE_CURVE('',#406,#407,#349,.T.);
#497=EDGE_CURVE('',#398,#407,#192,.T.);
#498=EDGE_CURVE('',#408,#409,#193,.T.);
#499=EDGE_CURVE('',#410,#408,#194,.T.);
#500=EDGE_CURVE('',#411,#410,#195,.T.);
#501=EDGE_CURVE('',#412,#411,#350,.T.);
#502=EDGE_CURVE('',#413,#412,#351,.T.);
#503=EDGE_CURVE('',#409,#413,#196,.T.);
#504=EDGE_CURVE('',#414,#415,#197,.T.);
#505=EDGE_CURVE('',#416,#414,#198,.T.);
#506=EDGE_CURVE('',#417,#416,#199,.T.);
#507=EDGE_CURVE('',#415,#417,#200,.T.);
#508=EDGE_CURVE('',#418,#418,#352,.T.);
#509=EDGE_CURVE('',#419,#419,#353,.T.);
#510=EDGE_CURVE('',#420,#401,#201,.T.);
#511=EDGE_CURVE('',#402,#420,#202,.T.);
#512=EDGE_CURVE('',#406,#421,#203,.T.);
#513=EDGE_CURVE('',#421,#422,#354,.T.);
#514=EDGE_CURVE('',#422,#407,#204,.T.);
#515=EDGE_CURVE('',#423,#405,#205,.T.);
#516=EDGE_CURVE('',#421,#423,#206,.T.);
#517=EDGE_CURVE('',#404,#424,#207,.T.);
#518=EDGE_CURVE('',#424,#423,#355,.T.);
#519=EDGE_CURVE('',#425,#403,#208,.T.);
#520=EDGE_CURVE('',#424,#425,#209,.T.);
#521=EDGE_CURVE('',#420,#425,#356,.T.);
#522=EDGE_CURVE('',#412,#426,#210,.T.);
#523=EDGE_CURVE('',#427,#426,#357,.F.);
#524=EDGE_CURVE('',#411,#427,#211,.T.);
#525=EDGE_CURVE('',#411,#428,#212,.T.);
#526=EDGE_CURVE('',#429,#428,#358,.T.);
#527=EDGE_CURVE('',#429,#413,#213,.T.);
#528=EDGE_CURVE('',#410,#430,#214,.T.);
#529=EDGE_CURVE('',#428,#430,#215,.T.);
#530=EDGE_CURVE('',#408,#431,#216,.T.);
#531=EDGE_CURVE('',#430,#431,#217,.T.);
#532=EDGE_CURVE('',#416,#432,#218,.T.);
#533=EDGE_CURVE('',#433,#432,#219,.T.);
#534=EDGE_CURVE('',#417,#433,#220,.T.);
#535=EDGE_CURVE('',#414,#434,#221,.T.);
#536=EDGE_CURVE('',#432,#434,#222,.T.);
#537=EDGE_CURVE('',#394,#435,#223,.T.);
#538=EDGE_CURVE('',#435,#435,#359,.T.);
#539=EDGE_CURVE('',#396,#436,#224,.T.);
#540=EDGE_CURVE('',#436,#436,#360,.T.);
#541=EDGE_CURVE('',#397,#437,#225,.T.);
#542=EDGE_CURVE('',#437,#437,#361,.T.);
#543=EDGE_CURVE('',#395,#438,#226,.T.);
#544=EDGE_CURVE('',#438,#438,#362,.T.);
#545=EDGE_CURVE('',#419,#439,#227,.T.);
#546=EDGE_CURVE('',#439,#439,#363,.T.);
#547=EDGE_CURVE('',#440,#441,#364,.T.);
#548=EDGE_CURVE('',#441,#442,#228,.T.);
#549=EDGE_CURVE('',#442,#443,#365,.T.);
#550=EDGE_CURVE('',#443,#444,#229,.T.);
#551=EDGE_CURVE('',#444,#445,#366,.T.);
#552=EDGE_CURVE('',#445,#446,#230,.T.);
#553=EDGE_CURVE('',#446,#447,#367,.T.);
#554=EDGE_CURVE('',#447,#440,#231,.T.);
#555=EDGE_CURVE('',#448,#448,#368,.T.);
#556=EDGE_CURVE('',#449,#429,#232,.T.);
#557=EDGE_CURVE('',#431,#449,#233,.T.);
#558=EDGE_CURVE('',#434,#450,#234,.T.);
#559=EDGE_CURVE('',#450,#433,#235,.T.);
#560=EDGE_CURVE('',#418,#448,#236,.T.);
#561=EDGE_CURVE('',#409,#449,#237,.T.);
#562=EDGE_CURVE('',#426,#427,#369,.T.);
#563=EDGE_CURVE('',#415,#450,#238,.T.);
#564=EDGE_CURVE('',#400,#422,#239,.T.);
#565=EDGE_CURVE('',#387,#441,#240,.T.);
#566=EDGE_CURVE('',#442,#386,#241,.T.);
#567=EDGE_CURVE('',#443,#393,#242,.T.);
#568=EDGE_CURVE('',#444,#392,#243,.T.);
#569=EDGE_CURVE('',#445,#391,#244,.T.);
#570=EDGE_CURVE('',#446,#390,#245,.T.);
#571=EDGE_CURVE('',#447,#389,#246,.T.);
#572=EDGE_CURVE('',#440,#388,#247,.T.);
#573=ORIENTED_EDGE('',*,*,#451,.F.);
#574=ORIENTED_EDGE('',*,*,#452,.T.);
#575=ORIENTED_EDGE('',*,*,#453,.F.);
#576=ORIENTED_EDGE('',*,*,#454,.F.);
#577=ORIENTED_EDGE('',*,*,#455,.F.);
#578=ORIENTED_EDGE('',*,*,#454,.T.);
#579=ORIENTED_EDGE('',*,*,#456,.F.);
#580=ORIENTED_EDGE('',*,*,#457,.F.);
#581=ORIENTED_EDGE('',*,*,#458,.F.);
#582=ORIENTED_EDGE('',*,*,#457,.T.);
#583=ORIENTED_EDGE('',*,*,#459,.F.);
#584=ORIENTED_EDGE('',*,*,#460,.F.);
#585=ORIENTED_EDGE('',*,*,#461,.F.);
#586=ORIENTED_EDGE('',*,*,#460,.T.);
#587=ORIENTED_EDGE('',*,*,#462,.F.);
#588=ORIENTED_EDGE('',*,*,#463,.F.);
#589=ORIENTED_EDGE('',*,*,#464,.F.);
#590=ORIENTED_EDGE('',*,*,#463,.T.);
#591=ORIENTED_EDGE('',*,*,#465,.F.);
#592=ORIENTED_EDGE('',*,*,#466,.F.);
#593=ORIENTED_EDGE('',*,*,#467,.F.);
#594=ORIENTED_EDGE('',*,*,#466,.T.);
#595=ORIENTED_EDGE('',*,*,#468,.F.);
#596=ORIENTED_EDGE('',*,*,#469,.F.);
#597=ORIENTED_EDGE('',*,*,#470,.F.);
#598=ORIENTED_EDGE('',*,*,#469,.T.);
#599=ORIENTED_EDGE('',*,*,#471,.F.);
#600=ORIENTED_EDGE('',*,*,#472,.F.);
#601=ORIENTED_EDGE('',*,*,#473,.F.);
#602=ORIENTED_EDGE('',*,*,#472,.T.);
#603=ORIENTED_EDGE('',*,*,#474,.F.);
#604=ORIENTED_EDGE('',*,*,#452,.F.);
#605=ORIENTED_EDGE('',*,*,#475,.T.);
#606=ORIENTED_EDGE('',*,*,#476,.T.);
#607=ORIENTED_EDGE('',*,*,#477,.T.);
#608=ORIENTED_EDGE('',*,*,#478,.T.);
#609=ORIENTED_EDGE('',*,*,#479,.T.);
#610=ORIENTED_EDGE('',*,*,#480,.T.);
#611=ORIENTED_EDGE('',*,*,#481,.T.);
#612=ORIENTED_EDGE('',*,*,#482,.T.);
#613=ORIENTED_EDGE('',*,*,#474,.T.);
#614=ORIENTED_EDGE('',*,*,#471,.T.);
#615=ORIENTED_EDGE('',*,*,#468,.T.);
#616=ORIENTED_EDGE('',*,*,#465,.T.);
#617=ORIENTED_EDGE('',*,*,#462,.T.);
#618=ORIENTED_EDGE('',*,*,#459,.T.);
#619=ORIENTED_EDGE('',*,*,#456,.T.);
#620=ORIENTED_EDGE('',*,*,#453,.T.);
#621=ORIENTED_EDGE('',*,*,#483,.T.);
#622=ORIENTED_EDGE('',*,*,#484,.T.);
#623=ORIENTED_EDGE('',*,*,#485,.T.);
#624=ORIENTED_EDGE('',*,*,#486,.T.);
#625=ORIENTED_EDGE('',*,*,#487,.F.);
#626=ORIENTED_EDGE('',*,*,#488,.T.);
#627=ORIENTED_EDGE('',*,*,#489,.T.);
#628=ORIENTED_EDGE('',*,*,#490,.T.);
#629=ORIENTED_EDGE('',*,*,#487,.T.);
#630=ORIENTED_EDGE('',*,*,#491,.F.);
#631=ORIENTED_EDGE('',*,*,#492,.T.);
#632=ORIENTED_EDGE('',*,*,#493,.F.);
#633=ORIENTED_EDGE('',*,*,#494,.T.);
#634=ORIENTED_EDGE('',*,*,#495,.F.);
#635=ORIENTED_EDGE('',*,*,#496,.T.);
#636=ORIENTED_EDGE('',*,*,#497,.F.);
#637=ORIENTED_EDGE('',*,*,#498,.F.);
#638=ORIENTED_EDGE('',*,*,#499,.F.);
#639=ORIENTED_EDGE('',*,*,#500,.F.);
#640=ORIENTED_EDGE('',*,*,#501,.F.);
#641=ORIENTED_EDGE('',*,*,#502,.F.);
#642=ORIENTED_EDGE('',*,*,#503,.F.);
#643=ORIENTED_EDGE('',*,*,#504,.F.);
#644=ORIENTED_EDGE('',*,*,#505,.F.);
#645=ORIENTED_EDGE('',*,*,#506,.F.);
#646=ORIENTED_EDGE('',*,*,#507,.F.);
#647=ORIENTED_EDGE('',*,*,#508,.F.);
#648=ORIENTED_EDGE('',*,*,#509,.F.);
#649=ORIENTED_EDGE('',*,*,#490,.F.);
#650=ORIENTED_EDGE('',*,*,#510,.F.);
#651=ORIENTED_EDGE('',*,*,#511,.F.);
#652=ORIENTED_EDGE('',*,*,#491,.T.);
#653=ORIENTED_EDGE('',*,*,#496,.F.);
#654=ORIENTED_EDGE('',*,*,#512,.T.);
#655=ORIENTED_EDGE('',*,*,#513,.T.);
#656=ORIENTED_EDGE('',*,*,#514,.T.);
#657=ORIENTED_EDGE('',*,*,#512,.F.);
#658=ORIENTED_EDGE('',*,*,#495,.T.);
#659=ORIENTED_EDGE('',*,*,#515,.F.);
#660=ORIENTED_EDGE('',*,*,#516,.F.);
#661=ORIENTED_EDGE('',*,*,#494,.F.);
#662=ORIENTED_EDGE('',*,*,#517,.T.);
#663=ORIENTED_EDGE('',*,*,#518,.T.);
#664=ORIENTED_EDGE('',*,*,#515,.T.);
#665=ORIENTED_EDGE('',*,*,#517,.F.);
#666=ORIENTED_EDGE('',*,*,#493,.T.);
#667=ORIENTED_EDGE('',*,*,#519,.F.);
#668=ORIENTED_EDGE('',*,*,#520,.F.);
#669=ORIENTED_EDGE('',*,*,#492,.F.);
#670=ORIENTED_EDGE('',*,*,#511,.T.);
#671=ORIENTED_EDGE('',*,*,#521,.T.);
#672=ORIENTED_EDGE('',*,*,#519,.T.);
#673=ORIENTED_EDGE('',*,*,#502,.T.);
#674=ORIENTED_EDGE('',*,*,#522,.T.);
#675=ORIENTED_EDGE('',*,*,#523,.F.);
#676=ORIENTED_EDGE('',*,*,#524,.F.);
#677=ORIENTED_EDGE('',*,*,#525,.T.);
#678=ORIENTED_EDGE('',*,*,#526,.F.);
#679=ORIENTED_EDGE('',*,*,#527,.T.);
#680=ORIENTED_EDGE('',*,*,#500,.T.);
#681=ORIENTED_EDGE('',*,*,#528,.T.);
#682=ORIENTED_EDGE('',*,*,#529,.F.);
#683=ORIENTED_EDGE('',*,*,#525,.F.);
#684=ORIENTED_EDGE('',*,*,#499,.T.);
#685=ORIENTED_EDGE('',*,*,#530,.T.);
#686=ORIENTED_EDGE('',*,*,#531,.F.);
#687=ORIENTED_EDGE('',*,*,#528,.F.);
#688=ORIENTED_EDGE('',*,*,#506,.T.);
#689=ORIENTED_EDGE('',*,*,#532,.T.);
#690=ORIENTED_EDGE('',*,*,#533,.F.);
#691=ORIENTED_EDGE('',*,*,#534,.F.);
#692=ORIENTED_EDGE('',*,*,#505,.T.);
#693=ORIENTED_EDGE('',*,*,#535,.T.);
#694=ORIENTED_EDGE('',*,*,#536,.F.);
#695=ORIENTED_EDGE('',*,*,#532,.F.);
#696=ORIENTED_EDGE('',*,*,#483,.F.);
#697=ORIENTED_EDGE('',*,*,#537,.T.);
#698=ORIENTED_EDGE('',*,*,#538,.F.);
#699=ORIENTED_EDGE('',*,*,#537,.F.);
#700=ORIENTED_EDGE('',*,*,#485,.F.);
#701=ORIENTED_EDGE('',*,*,#539,.T.);
#702=ORIENTED_EDGE('',*,*,#540,.F.);
#703=ORIENTED_EDGE('',*,*,#539,.F.);
#704=ORIENTED_EDGE('',*,*,#486,.F.);
#705=ORIENTED_EDGE('',*,*,#541,.T.);
#706=ORIENTED_EDGE('',*,*,#542,.F.);
#707=ORIENTED_EDGE('',*,*,#541,.F.);
#708=ORIENTED_EDGE('',*,*,#484,.F.);
#709=ORIENTED_EDGE('',*,*,#543,.T.);
#710=ORIENTED_EDGE('',*,*,#544,.F.);
#711=ORIENTED_EDGE('',*,*,#543,.F.);
#712=ORIENTED_EDGE('',*,*,#509,.T.);
#713=ORIENTED_EDGE('',*,*,#545,.T.);
#714=ORIENTED_EDGE('',*,*,#546,.F.);
#715=ORIENTED_EDGE('',*,*,#545,.F.);
#716=ORIENTED_EDGE('',*,*,#547,.T.);
#717=ORIENTED_EDGE('',*,*,#548,.T.);
#718=ORIENTED_EDGE('',*,*,#549,.T.);
#719=ORIENTED_EDGE('',*,*,#550,.T.);
#720=ORIENTED_EDGE('',*,*,#551,.T.);
#721=ORIENTED_EDGE('',*,*,#552,.T.);
#722=ORIENTED_EDGE('',*,*,#553,.T.);
#723=ORIENTED_EDGE('',*,*,#554,.T.);
#724=ORIENTED_EDGE('',*,*,#538,.T.);
#725=ORIENTED_EDGE('',*,*,#540,.T.);
#726=ORIENTED_EDGE('',*,*,#542,.T.);
#727=ORIENTED_EDGE('',*,*,#544,.T.);
#728=ORIENTED_EDGE('',*,*,#555,.T.);
#729=ORIENTED_EDGE('',*,*,#556,.T.);
#730=ORIENTED_EDGE('',*,*,#526,.T.);
#731=ORIENTED_EDGE('',*,*,#529,.T.);
#732=ORIENTED_EDGE('',*,*,#531,.T.);
#733=ORIENTED_EDGE('',*,*,#557,.T.);
#734=ORIENTED_EDGE('',*,*,#558,.T.);
#735=ORIENTED_EDGE('',*,*,#559,.T.);
#736=ORIENTED_EDGE('',*,*,#533,.T.);
#737=ORIENTED_EDGE('',*,*,#536,.T.);
#738=ORIENTED_EDGE('',*,*,#508,.T.);
#739=ORIENTED_EDGE('',*,*,#560,.T.);
#740=ORIENTED_EDGE('',*,*,#555,.F.);
#741=ORIENTED_EDGE('',*,*,#560,.F.);
#742=ORIENTED_EDGE('',*,*,#503,.T.);
#743=ORIENTED_EDGE('',*,*,#527,.F.);
#744=ORIENTED_EDGE('',*,*,#556,.F.);
#745=ORIENTED_EDGE('',*,*,#561,.F.);
#746=ORIENTED_EDGE('',*,*,#524,.T.);
#747=ORIENTED_EDGE('',*,*,#562,.F.);
#748=ORIENTED_EDGE('',*,*,#522,.F.);
#749=ORIENTED_EDGE('',*,*,#501,.T.);
#750=ORIENTED_EDGE('',*,*,#562,.T.);
#751=ORIENTED_EDGE('',*,*,#523,.T.);
#752=ORIENTED_EDGE('',*,*,#546,.T.);
#753=ORIENTED_EDGE('',*,*,#498,.T.);
#754=ORIENTED_EDGE('',*,*,#561,.T.);
#755=ORIENTED_EDGE('',*,*,#557,.F.);
#756=ORIENTED_EDGE('',*,*,#530,.F.);
#757=ORIENTED_EDGE('',*,*,#504,.T.);
#758=ORIENTED_EDGE('',*,*,#563,.T.);
#759=ORIENTED_EDGE('',*,*,#558,.F.);
#760=ORIENTED_EDGE('',*,*,#535,.F.);
#761=ORIENTED_EDGE('',*,*,#507,.T.);
#762=ORIENTED_EDGE('',*,*,#534,.T.);
#763=ORIENTED_EDGE('',*,*,#559,.F.);
#764=ORIENTED_EDGE('',*,*,#563,.F.);
#765=ORIENTED_EDGE('',*,*,#488,.F.);
#766=ORIENTED_EDGE('',*,*,#497,.T.);
#767=ORIENTED_EDGE('',*,*,#514,.F.);
#768=ORIENTED_EDGE('',*,*,#564,.F.);
#769=ORIENTED_EDGE('',*,*,#565,.F.);
#770=ORIENTED_EDGE('',*,*,#475,.F.);
#771=ORIENTED_EDGE('',*,*,#566,.F.);
#772=ORIENTED_EDGE('',*,*,#548,.F.);
#773=ORIENTED_EDGE('',*,*,#566,.T.);
#774=ORIENTED_EDGE('',*,*,#482,.F.);
#775=ORIENTED_EDGE('',*,*,#567,.F.);
#776=ORIENTED_EDGE('',*,*,#549,.F.);
#777=ORIENTED_EDGE('',*,*,#567,.T.);
#778=ORIENTED_EDGE('',*,*,#481,.F.);
#779=ORIENTED_EDGE('',*,*,#568,.F.);
#780=ORIENTED_EDGE('',*,*,#550,.F.);
#781=ORIENTED_EDGE('',*,*,#568,.T.);
#782=ORIENTED_EDGE('',*,*,#480,.F.);
#783=ORIENTED_EDGE('',*,*,#569,.F.);
#784=ORIENTED_EDGE('',*,*,#551,.F.);
#785=ORIENTED_EDGE('',*,*,#569,.T.);
#786=ORIENTED_EDGE('',*,*,#479,.F.);
#787=ORIENTED_EDGE('',*,*,#570,.F.);
#788=ORIENTED_EDGE('',*,*,#552,.F.);
#789=ORIENTED_EDGE('',*,*,#570,.T.);
#790=ORIENTED_EDGE('',*,*,#478,.F.);
#791=ORIENTED_EDGE('',*,*,#571,.F.);
#792=ORIENTED_EDGE('',*,*,#553,.F.);
#793=ORIENTED_EDGE('',*,*,#571,.T.);
#794=ORIENTED_EDGE('',*,*,#477,.F.);
#795=ORIENTED_EDGE('',*,*,#572,.F.);
#796=ORIENTED_EDGE('',*,*,#554,.F.);
#797=ORIENTED_EDGE('',*,*,#572,.T.);
#798=ORIENTED_EDGE('',*,*,#476,.F.);
#799=ORIENTED_EDGE('',*,*,#565,.T.);
#800=ORIENTED_EDGE('',*,*,#547,.F.);
#801=ORIENTED_EDGE('',*,*,#451,.T.);
#802=ORIENTED_EDGE('',*,*,#455,.T.);
#803=ORIENTED_EDGE('',*,*,#458,.T.);
#804=ORIENTED_EDGE('',*,*,#461,.T.);
#805=ORIENTED_EDGE('',*,*,#464,.T.);
#806=ORIENTED_EDGE('',*,*,#467,.T.);
#807=ORIENTED_EDGE('',*,*,#470,.T.);
#808=ORIENTED_EDGE('',*,*,#473,.T.);
#809=ORIENTED_EDGE('',*,*,#564,.T.);
#810=ORIENTED_EDGE('',*,*,#513,.F.);
#811=ORIENTED_EDGE('',*,*,#516,.T.);
#812=ORIENTED_EDGE('',*,*,#518,.F.);
#813=ORIENTED_EDGE('',*,*,#520,.T.);
#814=ORIENTED_EDGE('',*,*,#521,.F.);
#815=ORIENTED_EDGE('',*,*,#510,.T.);
#816=ORIENTED_EDGE('',*,*,#489,.F.);
#817=CYLINDRICAL_SURFACE('',#897,4.1);
#818=CYLINDRICAL_SURFACE('',#901,4.09999999999997);
#819=CYLINDRICAL_SURFACE('',#905,4.1);
#820=CYLINDRICAL_SURFACE('',#909,4.1);
#821=CYLINDRICAL_SURFACE('',#922,2.);
#822=CYLINDRICAL_SURFACE('',#934,2.);
#823=CYLINDRICAL_SURFACE('',#937,2.);
#824=CYLINDRICAL_SURFACE('',#940,2.);
#825=CYLINDRICAL_SURFACE('',#942,1.9);
#826=CYLINDRICAL_SURFACE('',#949,1.75000000000001);
#827=CYLINDRICAL_SURFACE('',#951,1.7);
#828=CYLINDRICAL_SURFACE('',#953,1.75);
#829=CYLINDRICAL_SURFACE('',#955,1.75);
#830=CYLINDRICAL_SURFACE('',#957,1.65);
#831=CYLINDRICAL_SURFACE('',#965,2.35);
#832=CYLINDRICAL_SURFACE('',#967,1.5);
#833=CYLINDRICAL_SURFACE('',#976,4.99999999999999);
#834=CYLINDRICAL_SURFACE('',#978,4.99999999999999);
#835=CYLINDRICAL_SURFACE('',#980,5.);
#836=CYLINDRICAL_SURFACE('',#982,4.99999999999999);
#837=ADVANCED_FACE('',(#58),#817,.F.);
#838=ADVANCED_FACE('',(#59),#32,.T.);
#839=ADVANCED_FACE('',(#60),#818,.F.);
#840=ADVANCED_FACE('',(#61),#33,.T.);
#841=ADVANCED_FACE('',(#62),#819,.F.);
#842=ADVANCED_FACE('',(#63),#34,.T.);
#843=ADVANCED_FACE('',(#64),#820,.F.);
#844=ADVANCED_FACE('',(#65),#35,.T.);
#845=ADVANCED_FACE('',(#66,#15,#16,#17,#18,#19),#36,.T.);
#846=ADVANCED_FACE('',(#67),#821,.F.);
#847=ADVANCED_FACE('',(#68,#20,#21,#22,#23),#37,.T.);
#848=ADVANCED_FACE('',(#69),#38,.T.);
#849=ADVANCED_FACE('',(#70),#822,.F.);
#850=ADVANCED_FACE('',(#71),#39,.T.);
#851=ADVANCED_FACE('',(#72),#823,.F.);
#852=ADVANCED_FACE('',(#73),#40,.T.);
#853=ADVANCED_FACE('',(#74),#824,.F.);
#854=ADVANCED_FACE('',(#75),#825,.F.);
#855=ADVANCED_FACE('',(#76),#41,.F.);
#856=ADVANCED_FACE('',(#77),#42,.F.);
#857=ADVANCED_FACE('',(#78),#43,.F.);
#858=ADVANCED_FACE('',(#79),#44,.F.);
#859=ADVANCED_FACE('',(#80),#826,.F.);
#860=ADVANCED_FACE('',(#81),#827,.F.);
#861=ADVANCED_FACE('',(#82),#828,.F.);
#862=ADVANCED_FACE('',(#83),#829,.F.);
#863=ADVANCED_FACE('',(#84),#830,.T.);
#864=ADVANCED_FACE('',(#85,#24,#25,#26,#27,#28,#29,#30),#45,.F.);
#865=ADVANCED_FACE('',(#86),#831,.F.);
#866=ADVANCED_FACE('',(#87),#46,.F.);
#867=ADVANCED_FACE('',(#88),#832,.T.);
#868=ADVANCED_FACE('',(#89),#47,.T.);
#869=ADVANCED_FACE('',(#90),#48,.T.);
#870=ADVANCED_FACE('',(#91),#49,.F.);
#871=ADVANCED_FACE('',(#92),#50,.F.);
#872=ADVANCED_FACE('',(#93),#51,.F.);
#873=ADVANCED_FACE('',(#94),#52,.T.);
#874=ADVANCED_FACE('',(#95),#53,.T.);
#875=ADVANCED_FACE('',(#96),#833,.T.);
#876=ADVANCED_FACE('',(#97),#54,.T.);
#877=ADVANCED_FACE('',(#98),#834,.T.);
#878=ADVANCED_FACE('',(#99),#55,.T.);
#879=ADVANCED_FACE('',(#100),#835,.T.);
#880=ADVANCED_FACE('',(#101),#56,.T.);
#881=ADVANCED_FACE('',(#102),#836,.T.);
#882=ADVANCED_FACE('',(#103,#31),#57,.T.);
#883=CLOSED_SHELL('',(#837,#838,#839,#840,#841,#842,#843,#844,#845,#846,
#847,#848,#849,#850,#851,#852,#853,#854,#855,#856,#857,#858,#859,#860,#861,
#862,#863,#864,#865,#866,#867,#868,#869,#870,#871,#872,#873,#874,#875,#876,
#877,#878,#879,#880,#881,#882));
#884=DERIVED_UNIT_ELEMENT(#886,1.);
#885=DERIVED_UNIT_ELEMENT(#1496,-3.);
#886=(
MASS_UNIT()
NAMED_UNIT(*)
SI_UNIT(.KILO.,.GRAM.)
);
#887=DERIVED_UNIT((#884,#885));
#888=MEASURE_REPRESENTATION_ITEM('density measure',
POSITIVE_RATIO_MEASURE(7850.),#887);
#889=PROPERTY_DEFINITION_REPRESENTATION(#894,#891);
#890=PROPERTY_DEFINITION_REPRESENTATION(#895,#892);
#891=REPRESENTATION('material name',(#893),#1493);
#892=REPRESENTATION('density',(#888),#1493);
#893=DESCRIPTIVE_REPRESENTATION_ITEM('Stal','Stal');
#894=PROPERTY_DEFINITION('material property','material name',#1503);
#895=PROPERTY_DEFINITION('material property','density of part',#1503);
#896=AXIS2_PLACEMENT_3D('',#1241,#984,#985);
#897=AXIS2_PLACEMENT_3D('',#1242,#986,#987);
#898=AXIS2_PLACEMENT_3D('',#1245,#988,#989);
#899=AXIS2_PLACEMENT_3D('',#1249,#991,#992);
#900=AXIS2_PLACEMENT_3D('',#1251,#994,#995);
#901=AXIS2_PLACEMENT_3D('',#1257,#999,#1000);
#902=AXIS2_PLACEMENT_3D('',#1259,#1001,#1002);
#903=AXIS2_PLACEMENT_3D('',#1261,#1003,#1004);
#904=AXIS2_PLACEMENT_3D('',#1263,#1006,#1007);
#905=AXIS2_PLACEMENT_3D('',#1269,#1011,#1012);
#906=AXIS2_PLACEMENT_3D('',#1271,#1013,#1014);
#907=AXIS2_PLACEMENT_3D('',#1273,#1015,#1016);
#908=AXIS2_PLACEMENT_3D('',#1275,#1018,#1019);
#909=AXIS2_PLACEMENT_3D('',#1281,#1023,#1024);
#910=AXIS2_PLACEMENT_3D('',#1283,#1025,#1026);
#911=AXIS2_PLACEMENT_3D('',#1285,#1027,#1028);
#912=AXIS2_PLACEMENT_3D('',#1287,#1030,#1031);
#913=AXIS2_PLACEMENT_3D('',#1290,#1034,#1035);
#914=AXIS2_PLACEMENT_3D('',#1295,#1037,#1038);
#915=AXIS2_PLACEMENT_3D('',#1299,#1040,#1041);
#916=AXIS2_PLACEMENT_3D('',#1303,#1043,#1044);
#917=AXIS2_PLACEMENT_3D('',#1306,#1046,#1047);
#918=AXIS2_PLACEMENT_3D('',#1308,#1048,#1049);
#919=AXIS2_PLACEMENT_3D('',#1310,#1050,#1051);
#920=AXIS2_PLACEMENT_3D('',#1312,#1052,#1053);
#921=AXIS2_PLACEMENT_3D('',#1314,#1054,#1055);
#922=AXIS2_PLACEMENT_3D('',#1315,#1056,#1057);
#923=AXIS2_PLACEMENT_3D('',#1318,#1058,#1059);
#924=AXIS2_PLACEMENT_3D('',#1322,#1061,#1062);
#925=AXIS2_PLACEMENT_3D('',#1324,#1064,#1065);
#926=AXIS2_PLACEMENT_3D('',#1328,#1067,#1068);
#927=AXIS2_PLACEMENT_3D('',#1332,#1070,#1071);
#928=AXIS2_PLACEMENT_3D('',#1336,#1073,#1074);
#929=AXIS2_PLACEMENT_3D('',#1346,#1079,#1080);
#930=AXIS2_PLACEMENT_3D('',#1348,#1081,#1082);
#931=AXIS2_PLACEMENT_3D('',#1359,#1088,#1089);
#932=AXIS2_PLACEMENT_3D('',#1361,#1090,#1091);
#933=AXIS2_PLACEMENT_3D('',#1362,#1092,#1093);
#934=AXIS2_PLACEMENT_3D('',#1366,#1096,#1097);
#935=AXIS2_PLACEMENT_3D('',#1370,#1099,#1100);
#936=AXIS2_PLACEMENT_3D('',#1372,#1102,#1103);
#937=AXIS2_PLACEMENT_3D('',#1376,#1106,#1107);
#938=AXIS2_PLACEMENT_3D('',#1379,#1109,#1110);
#939=AXIS2_PLACEMENT_3D('',#1380,#1111,#1112);
#940=AXIS2_PLACEMENT_3D('',#1384,#1115,#1116);
#941=AXIS2_PLACEMENT_3D('',#1385,#1117,#1118);
#942=AXIS2_PLACEMENT_3D('',#1386,#1119,#1120);
#943=AXIS2_PLACEMENT_3D('',#1390,#1122,#1123);
#944=AXIS2_PLACEMENT_3D('',#1395,#1126,#1127);
#945=AXIS2_PLACEMENT_3D('',#1397,#1129,#1130);
#946=AXIS2_PLACEMENT_3D('',#1401,#1133,#1134);
#947=AXIS2_PLACEMENT_3D('',#1405,#1137,#1138);
#948=AXIS2_PLACEMENT_3D('',#1411,#1142,#1143);
#949=AXIS2_PLACEMENT_3D('',#1415,#1146,#1147);
#950=AXIS2_PLACEMENT_3D('',#1418,#1149,#1150);
#951=AXIS2_PLACEMENT_3D('',#1419,#1151,#1152);
#952=AXIS2_PLACEMENT_3D('',#1422,#1154,#1155);
#953=AXIS2_PLACEMENT_3D('',#1423,#1156,#1157);
#954=AXIS2_PLACEMENT_3D('',#1426,#1159,#1160);
#955=AXIS2_PLACEMENT_3D('',#1427,#1161,#1162);
#956=AXIS2_PLACEMENT_3D('',#1430,#1164,#1165);
#957=AXIS2_PLACEMENT_3D('',#1431,#1166,#1167);
#958=AXIS2_PLACEMENT_3D('',#1434,#1169,#1170);
#959=AXIS2_PLACEMENT_3D('',#1435,#1171,#1172);
#960=AXIS2_PLACEMENT_3D('',#1438,#1173,#1174);
#961=AXIS2_PLACEMENT_3D('',#1442,#1176,#1177);
#962=AXIS2_PLACEMENT_3D('',#1446,#1179,#1180);
#963=AXIS2_PLACEMENT_3D('',#1450,#1182,#1183);
#964=AXIS2_PLACEMENT_3D('',#1453,#1185,#1186);
#965=AXIS2_PLACEMENT_3D('',#1460,#1191,#1192);
#966=AXIS2_PLACEMENT_3D('',#1462,#1194,#1195);
#967=AXIS2_PLACEMENT_3D('',#1464,#1197,#1198);
#968=AXIS2_PLACEMENT_3D('',#1465,#1199,#1200);
#969=AXIS2_PLACEMENT_3D('',#1466,#1201,#1202);
#970=AXIS2_PLACEMENT_3D('',#1467,#1203,#1204);
#971=AXIS2_PLACEMENT_3D('',#1468,#1205,#1206);
#972=AXIS2_PLACEMENT_3D('',#1469,#1207,#1208);
#973=AXIS2_PLACEMENT_3D('',#1471,#1210,#1211);
#974=AXIS2_PLACEMENT_3D('',#1472,#1212,#1213);
#975=AXIS2_PLACEMENT_3D('',#1474,#1215,#1216);
#976=AXIS2_PLACEMENT_3D('',#1477,#1219,#1220);
#977=AXIS2_PLACEMENT_3D('',#1479,#1222,#1223);
#978=AXIS2_PLACEMENT_3D('',#1481,#1225,#1226);
#979=AXIS2_PLACEMENT_3D('',#1483,#1228,#1229);
#980=AXIS2_PLACEMENT_3D('',#1485,#1231,#1232);
#981=AXIS2_PLACEMENT_3D('',#1487,#1234,#1235);
#982=AXIS2_PLACEMENT_3D('',#1489,#1237,#1238);
#983=AXIS2_PLACEMENT_3D('',#1490,#1239,#1240);
#984=DIRECTION('axis',(0.,0.,1.));
#985=DIRECTION('refdir',(1.,0.,0.));
#986=DIRECTION('center_axis',(0.,0.,1.));
#987=DIRECTION('ref_axis',(0.,-1.,0.));
#988=DIRECTION('center_axis',(0.,0.,1.));
#989=DIRECTION('ref_axis',(0.,-1.,0.));
#990=DIRECTION('',(0.,0.,1.));
#991=DIRECTION('center_axis',(0.,0.,-1.));
#992=DIRECTION('ref_axis',(0.,-1.,0.));
#993=DIRECTION('',(0.,0.,1.));
#994=DIRECTION('center_axis',(-1.,0.,0.));
#995=DIRECTION('ref_axis',(0.,-1.,0.));
#996=DIRECTION('',(0.,1.,0.));
#997=DIRECTION('',(0.,-1.,0.));
#998=DIRECTION('',(0.,0.,1.));
#999=DIRECTION('center_axis',(0.,0.,1.));
#1000=DIRECTION('ref_axis',(1.,-8.66515531414762E-15,0.));
#1001=DIRECTION('center_axis',(0.,0.,1.));
#1002=DIRECTION('ref_axis',(1.,-8.66515531414762E-15,0.));
#1003=DIRECTION('center_axis',(0.,0.,-1.));
#1004=DIRECTION('ref_axis',(1.,-8.66515531414762E-15,0.));
#1005=DIRECTION('',(0.,0.,1.));
#1006=DIRECTION('center_axis',(0.,-1.,0.));
#1007=DIRECTION('ref_axis',(1.,0.,0.));
#1008=DIRECTION('',(-1.,0.,0.));
#1009=DIRECTION('',(1.,0.,0.));
#1010=DIRECTION('',(0.,0.,1.));
#1011=DIRECTION('center_axis',(0.,0.,1.));
#1012=DIRECTION('ref_axis',(5.41572207134222E-16,1.,0.));
#1013=DIRECTION('center_axis',(0.,0.,1.));
#1014=DIRECTION('ref_axis',(5.41572207134222E-16,1.,0.));
#1015=DIRECTION('center_axis',(0.,0.,-1.));
#1016=DIRECTION('ref_axis',(5.41572207134222E-16,1.,0.));
#1017=DIRECTION('',(0.,0.,1.));
#1018=DIRECTION('center_axis',(1.,3.08395284618099E-17,0.));
#1019=DIRECTION('ref_axis',(-3.08395284618099E-17,1.,0.));
#1020=DIRECTION('',(3.08395284618099E-17,-1.,0.));
#1021=DIRECTION('',(-3.08395284618099E-17,1.,0.));
#1022=DIRECTION('',(0.,0.,1.));
#1023=DIRECTION('center_axis',(0.,0.,1.));
#1024=DIRECTION('ref_axis',(-1.,0.,0.));
#1025=DIRECTION('center_axis',(0.,0.,1.));
#1026=DIRECTION('ref_axis',(-1.,0.,0.));
#1027=DIRECTION('center_axis',(0.,0.,-1.));
#1028=DIRECTION('ref_axis',(-1.,0.,0.));
#1029=DIRECTION('',(0.,0.,1.));
#1030=DIRECTION('center_axis',(-1.16253719856037E-16,1.,0.));
#1031=DIRECTION('ref_axis',(-1.,-1.16253719856037E-16,0.));
#1032=DIRECTION('',(1.,1.16253719856037E-16,0.));
#1033=DIRECTION('',(-1.,-1.16253719856037E-16,0.));
#1034=DIRECTION('center_axis',(0.,0.,1.));
#1035=DIRECTION('ref_axis',(-1.,0.,0.));
#1036=DIRECTION('',(-9.65411325761003E-17,-1.,0.));
#1037=DIRECTION('center_axis',(0.,0.,1.));
#1038=DIRECTION('ref_axis',(-1.,1.33226762955019E-15,0.));
#1039=DIRECTION('',(1.,2.41159923471097E-31,0.));
#1040=DIRECTION('center_axis',(0.,0.,1.));
#1041=DIRECTION('ref_axis',(-1.77635683940025E-15,-1.,0.));
#1042=DIRECTION('',(-1.93082265152201E-16,1.,0.));
#1043=DIRECTION('center_axis',(0.,0.,1.));
#1044=DIRECTION('ref_axis',(1.,-1.77635683940025E-15,0.));
#1045=DIRECTION('',(-1.,0.,0.));
#1046=DIRECTION('center_axis',(0.,0.,1.));
#1047=DIRECTION('ref_axis',(7.77156117237611E-16,1.,0.));
#1048=DIRECTION('center_axis',(0.,0.,-1.));
#1049=DIRECTION('ref_axis',(-1.,0.,0.));
#1050=DIRECTION('center_axis',(0.,0.,-1.));
#1051=DIRECTION('ref_axis',(-1.,0.,0.));
#1052=DIRECTION('center_axis',(0.,0.,-1.));
#1053=DIRECTION('ref_axis',(-1.,0.,0.));
#1054=DIRECTION('center_axis',(0.,0.,-1.));
#1055=DIRECTION('ref_axis',(-1.,0.,0.));
#1056=DIRECTION('center_axis',(0.,0.,1.));
#1057=DIRECTION('ref_axis',(-0.707106781186547,-0.707106781186548,0.));
#1058=DIRECTION('center_axis',(0.,0.,1.));
#1059=DIRECTION('ref_axis',(-0.707106781186547,-0.707106781186548,0.));
#1060=DIRECTION('',(0.,0.,1.));
#1061=DIRECTION('center_axis',(0.,0.,1.));
#1062=DIRECTION('ref_axis',(-0.707106781186547,-0.707106781186548,0.));
#1063=DIRECTION('',(0.,0.,-1.));
#1064=DIRECTION('center_axis',(0.,0.,1.));
#1065=DIRECTION('ref_axis',(1.,0.,0.));
#1066=DIRECTION('',(-1.,0.,0.));
#1067=DIRECTION('center_axis',(0.,0.,1.));
#1068=DIRECTION('ref_axis',(0.707106781186548,-0.707106781186547,0.));
#1069=DIRECTION('',(0.,-1.,0.));
#1070=DIRECTION('center_axis',(0.,0.,1.));
#1071=DIRECTION('ref_axis',(0.707106781186548,0.707106781186548,0.));
#1072=DIRECTION('',(1.,0.,0.));
#1073=DIRECTION('center_axis',(0.,0.,1.));
#1074=DIRECTION('ref_axis',(-0.707106781186548,0.707106781186548,0.));
#1075=DIRECTION('',(0.,1.,0.));
#1076=DIRECTION('',(1.,0.,0.));
#1077=DIRECTION('',(0.,-1.,0.));
#1078=DIRECTION('',(-1.,0.,0.));
#1079=DIRECTION('center_axis',(0.,0.,1.));
#1080=DIRECTION('ref_axis',(0.266666666666669,-0.963788819653397,0.));
#1081=DIRECTION('center_axis',(0.,0.,1.));
#1082=DIRECTION('ref_axis',(1.,0.,0.));
#1083=DIRECTION('',(0.,1.,0.));
#1084=DIRECTION('',(-1.,0.,0.));
#1085=DIRECTION('',(0.,1.,0.));
#1086=DIRECTION('',(1.,0.,0.));
#1087=DIRECTION('',(0.,-1.,0.));
#1088=DIRECTION('center_axis',(0.,0.,1.));
#1089=DIRECTION('ref_axis',(-1.,0.,0.));
#1090=DIRECTION('center_axis',(0.,0.,1.));
#1091=DIRECTION('ref_axis',(-1.,0.,0.));
#1092=DIRECTION('center_axis',(0.,1.,0.));
#1093=DIRECTION('ref_axis',(-1.,0.,0.));
#1094=DIRECTION('',(-1.,0.,0.));
#1095=DIRECTION('',(0.,0.,1.));
#1096=DIRECTION('center_axis',(0.,0.,1.));
#1097=DIRECTION('ref_axis',(-0.707106781186548,0.707106781186548,0.));
#1098=DIRECTION('',(0.,0.,1.));
#1099=DIRECTION('center_axis',(0.,0.,1.));
#1100=DIRECTION('ref_axis',(-0.707106781186548,0.707106781186548,0.));
#1101=DIRECTION('',(0.,0.,-1.));
#1102=DIRECTION('center_axis',(0.,-1.,0.));
#1103=DIRECTION('ref_axis',(1.,0.,0.));
#1104=DIRECTION('',(0.,0.,-1.));
#1105=DIRECTION('',(1.,0.,0.));
#1106=DIRECTION('center_axis',(0.,0.,1.));
#1107=DIRECTION('ref_axis',(0.707106781186548,0.707106781186548,0.));
#1108=DIRECTION('',(0.,0.,1.));
#1109=DIRECTION('center_axis',(0.,0.,1.));
#1110=DIRECTION('ref_axis',(0.707106781186548,0.707106781186548,0.));
#1111=DIRECTION('center_axis',(-1.,0.,0.));
#1112=DIRECTION('ref_axis',(0.,-1.,0.));
#1113=DIRECTION('',(0.,0.,-1.));
#1114=DIRECTION('',(0.,-1.,0.));
#1115=DIRECTION('center_axis',(0.,0.,1.));
#1116=DIRECTION('ref_axis',(0.707106781186548,-0.707106781186547,0.));
#1117=DIRECTION('center_axis',(0.,0.,1.));
#1118=DIRECTION('ref_axis',(0.707106781186548,-0.707106781186547,0.));
#1119=DIRECTION('center_axis',(0.,0.,1.));
#1120=DIRECTION('ref_axis',(1.,0.,0.));
#1121=DIRECTION('',(0.,0.,1.));
#1122=DIRECTION('center_axis',(0.,0.,1.));
#1123=DIRECTION('ref_axis',(1.,0.,0.));
#1124=DIRECTION('',(0.,0.,1.));
#1125=DIRECTION('',(0.,0.,-1.));
#1126=DIRECTION('center_axis',(0.,0.,1.));
#1127=DIRECTION('ref_axis',(1.,0.,0.));
#1128=DIRECTION('',(0.,0.,1.));
#1129=DIRECTION('center_axis',(0.,1.,0.));
#1130=DIRECTION('ref_axis',(1.,0.,0.));
#1131=DIRECTION('',(0.,0.,-1.));
#1132=DIRECTION('',(-1.,0.,0.));
#1133=DIRECTION('center_axis',(-1.,0.,0.));
#1134=DIRECTION('ref_axis',(0.,1.,0.));
#1135=DIRECTION('',(0.,0.,-1.));
#1136=DIRECTION('',(0.,-1.,0.));
#1137=DIRECTION('center_axis',(0.,-1.,0.));
#1138=DIRECTION('ref_axis',(-1.,0.,0.));
#1139=DIRECTION('',(0.,0.,-1.));
#1140=DIRECTION('',(1.,0.,0.));
#1141=DIRECTION('',(0.,0.,-1.));
#1142=DIRECTION('center_axis',(1.,0.,0.));
#1143=DIRECTION('ref_axis',(0.,-1.,0.));
#1144=DIRECTION('',(0.,0.,-1.));
#1145=DIRECTION('',(0.,1.,0.));
#1146=DIRECTION('center_axis',(0.,0.,1.));
#1147=DIRECTION('ref_axis',(1.,0.,0.));
#1148=DIRECTION('',(0.,0.,-1.));
#1149=DIRECTION('center_axis',(0.,0.,1.));
#1150=DIRECTION('ref_axis',(1.,0.,0.));
#1151=DIRECTION('center_axis',(0.,0.,1.));
#1152=DIRECTION('ref_axis',(1.,0.,0.));
#1153=DIRECTION('',(0.,0.,-1.));
#1154=DIRECTION('center_axis',(0.,0.,1.));
#1155=DIRECTION('ref_axis',(1.,0.,0.));
#1156=DIRECTION('center_axis',(0.,0.,1.));
#1157=DIRECTION('ref_axis',(1.,0.,0.));
#1158=DIRECTION('',(0.,0.,-1.));
#1159=DIRECTION('center_axis',(0.,0.,1.));
#1160=DIRECTION('ref_axis',(1.,0.,0.));
#1161=DIRECTION('center_axis',(0.,0.,1.));
#1162=DIRECTION('ref_axis',(1.,0.,0.));
#1163=DIRECTION('',(0.,0.,-1.));
#1164=DIRECTION('center_axis',(0.,0.,1.));
#1165=DIRECTION('ref_axis',(1.,0.,0.));
#1166=DIRECTION('center_axis',(0.,0.,-1.));
#1167=DIRECTION('ref_axis',(-1.,0.,0.));
#1168=DIRECTION('',(0.,0.,1.));
#1169=DIRECTION('center_axis',(0.,0.,1.));
#1170=DIRECTION('ref_axis',(-1.,0.,0.));
#1171=DIRECTION('center_axis',(0.,0.,1.));
#1172=DIRECTION('ref_axis',(1.,0.,0.));
#1173=DIRECTION('center_axis',(0.,0.,-1.));
#1174=DIRECTION('ref_axis',(-1.,1.11022302462516E-15,0.));
#1175=DIRECTION('',(9.65411325761006E-17,1.,0.));
#1176=DIRECTION('center_axis',(0.,0.,-1.));
#1177=DIRECTION('ref_axis',(7.77156117237611E-16,1.,0.));
#1178=DIRECTION('',(1.,0.,0.));
#1179=DIRECTION('center_axis',(0.,0.,-1.));
#1180=DIRECTION('ref_axis',(1.,-1.77635683940025E-15,0.));
#1181=DIRECTION('',(1.93082265152201E-16,-1.,0.));
#1182=DIRECTION('center_axis',(0.,0.,-1.));
#1183=DIRECTION('ref_axis',(-1.77635683940025E-15,-1.,0.));
#1184=DIRECTION('',(-1.,0.,0.));
#1185=DIRECTION('center_axis',(0.,0.,1.));
#1186=DIRECTION('ref_axis',(-1.,0.,0.));
#1187=DIRECTION('',(0.,1.,0.));
#1188=DIRECTION('',(1.,0.,0.));
#1189=DIRECTION('',(-1.,0.,0.));
#1190=DIRECTION('',(0.,-1.,0.));
#1191=DIRECTION('center_axis',(0.,0.,-1.));
#1192=DIRECTION('ref_axis',(-1.,0.,0.));
#1193=DIRECTION('',(0.,0.,-1.));
#1194=DIRECTION('center_axis',(1.,0.,0.));
#1195=DIRECTION('ref_axis',(0.,-1.,0.));
#1196=DIRECTION('',(0.,0.,-1.));
#1197=DIRECTION('center_axis',(0.,0.,1.));
#1198=DIRECTION('ref_axis',(0.61964428857902,0.784882765533427,0.));
#1199=DIRECTION('center_axis',(0.,0.,1.));
#1200=DIRECTION('ref_axis',(0.266666666666669,-0.963788819653397,0.));
#1201=DIRECTION('center_axis',(0.,0.,1.));
#1202=DIRECTION('ref_axis',(-1.,0.,0.));
#1203=DIRECTION('center_axis',(0.,0.,1.));
#1204=DIRECTION('ref_axis',(-1.,0.,0.));
#1205=DIRECTION('center_axis',(0.,-1.,0.));
#1206=DIRECTION('ref_axis',(-1.,0.,0.));
#1207=DIRECTION('center_axis',(0.,1.,0.));
#1208=DIRECTION('ref_axis',(1.,0.,0.));
#1209=DIRECTION('',(0.,0.,-1.));
#1210=DIRECTION('center_axis',(-1.,0.,0.));
#1211=DIRECTION('ref_axis',(0.,1.,0.));
#1212=DIRECTION('center_axis',(1.,0.,0.));
#1213=DIRECTION('ref_axis',(0.,1.,0.));
#1214=DIRECTION('',(0.,1.,0.));
#1215=DIRECTION('center_axis',(-1.,9.65411325761006E-17,0.));
#1216=DIRECTION('ref_axis',(-9.65411325761006E-17,-1.,0.));
#1217=DIRECTION('',(0.,0.,-1.));
#1218=DIRECTION('',(0.,0.,1.));
#1219=DIRECTION('center_axis',(0.,0.,1.));
#1220=DIRECTION('ref_axis',(7.77156117237611E-16,1.,0.));
#1221=DIRECTION('',(0.,0.,1.));
#1222=DIRECTION('center_axis',(0.,1.,0.));
#1223=DIRECTION('ref_axis',(-1.,0.,0.));
#1224=DIRECTION('',(0.,0.,1.));
#1225=DIRECTION('center_axis',(0.,0.,1.));
#1226=DIRECTION('ref_axis',(1.,-1.77635683940025E-15,0.));
#1227=DIRECTION('',(0.,0.,1.));
#1228=DIRECTION('center_axis',(1.,1.93082265152201E-16,0.));
#1229=DIRECTION('ref_axis',(-1.93082265152201E-16,1.,0.));
#1230=DIRECTION('',(0.,0.,1.));
#1231=DIRECTION('center_axis',(0.,0.,1.));
#1232=DIRECTION('ref_axis',(-1.77635683940025E-15,-1.,0.));
#1233=DIRECTION('',(0.,0.,1.));
#1234=DIRECTION('center_axis',(0.,-1.,0.));
#1235=DIRECTION('ref_axis',(1.,0.,0.));
#1236=DIRECTION('',(0.,0.,1.));
#1237=DIRECTION('center_axis',(0.,0.,1.));
#1238=DIRECTION('ref_axis',(-1.,1.11022302462516E-15,0.));
#1239=DIRECTION('center_axis',(0.,0.,1.));
#1240=DIRECTION('ref_axis',(1.,0.,0.));
#1241=CARTESIAN_POINT('',(0.,0.,0.));
#1242=CARTESIAN_POINT('Origin',(46.,10.,6.));
#1243=CARTESIAN_POINT('',(46.,5.9,6.));
#1244=CARTESIAN_POINT('',(50.1,10.,6.));
#1245=CARTESIAN_POINT('Origin',(46.,10.,6.));
#1246=CARTESIAN_POINT('',(46.,5.9,6.5));
#1247=CARTESIAN_POINT('',(46.,5.9,6.));
#1248=CARTESIAN_POINT('',(50.1,10.,6.5));
#1249=CARTESIAN_POINT('Origin',(46.,10.,6.5));
#1250=CARTESIAN_POINT('',(50.1,10.,6.));
#1251=CARTESIAN_POINT('Origin',(50.1,46.,6.));
#1252=CARTESIAN_POINT('',(50.1,46.,6.));
#1253=CARTESIAN_POINT('',(50.1,37.,6.));
#1254=CARTESIAN_POINT('',(50.1,46.,6.5));
#1255=CARTESIAN_POINT('',(50.1,46.,6.5));
#1256=CARTESIAN_POINT('',(50.1,46.,6.));
#1257=CARTESIAN_POINT('Origin',(46.,46.,6.));
#1258=CARTESIAN_POINT('',(46.,50.1,6.));
#1259=CARTESIAN_POINT('Origin',(46.,46.,6.));
#1260=CARTESIAN_POINT('',(46.,50.1,6.5));
#1261=CARTESIAN_POINT('Origin',(46.,46.,6.5));
#1262=CARTESIAN_POINT('',(46.,50.1,6.));
#1263=CARTESIAN_POINT('Origin',(10.,50.1,6.));
#1264=CARTESIAN_POINT('',(10.,50.1,6.));
#1265=CARTESIAN_POINT('',(19.,50.1,6.));
#1266=CARTESIAN_POINT('',(10.,50.1,6.5));
#1267=CARTESIAN_POINT('',(10.,50.1,6.5));
#1268=CARTESIAN_POINT('',(10.,50.1,6.));
#1269=CARTESIAN_POINT('Origin',(10.,46.,6.));
#1270=CARTESIAN_POINT('',(5.9,46.,6.));
#1271=CARTESIAN_POINT('Origin',(10.,46.,6.));
#1272=CARTESIAN_POINT('',(5.9,46.,6.5));
#1273=CARTESIAN_POINT('Origin',(10.,46.,6.5));
#1274=CARTESIAN_POINT('',(5.9,46.,6.));
#1275=CARTESIAN_POINT('Origin',(5.9,10.,6.));
#1276=CARTESIAN_POINT('',(5.9,10.,6.));
#1277=CARTESIAN_POINT('',(5.9,19.,6.));
#1278=CARTESIAN_POINT('',(5.90000000000001,10.,6.5));
#1279=CARTESIAN_POINT('',(5.9,10.,6.5));
#1280=CARTESIAN_POINT('',(5.9,10.,6.));
#1281=CARTESIAN_POINT('Origin',(10.,10.,6.));
#1282=CARTESIAN_POINT('',(10.,5.9,6.));
#1283=CARTESIAN_POINT('Origin',(10.,10.,6.));
#1284=CARTESIAN_POINT('',(10.,5.9,6.5));
#1285=CARTESIAN_POINT('Origin',(10.,10.,6.5));
#1286=CARTESIAN_POINT('',(10.,5.9,6.));
#1287=CARTESIAN_POINT('Origin',(46.,5.9,6.));
#1288=CARTESIAN_POINT('',(37.,5.9,6.));
#1289=CARTESIAN_POINT('',(46.,5.9,6.5));
#1290=CARTESIAN_POINT('Origin',(28.,28.,6.5));
#1291=CARTESIAN_POINT('',(8.88178419700125E-15,51.,6.5));
#1292=CARTESIAN_POINT('',(0.,5.,6.5));
#1293=CARTESIAN_POINT('',(4.99600361081319E-15,51.,6.5));
#1294=CARTESIAN_POINT('',(5.,0.,6.5));
#1295=CARTESIAN_POINT('Origin',(4.99999999999999,4.99999999999999,6.5));
#1296=CARTESIAN_POINT('',(51.,0.,6.5));
#1297=CARTESIAN_POINT('',(5.,-1.10933564796705E-29,6.5));
#1298=CARTESIAN_POINT('',(56.,5.,6.5));
#1299=CARTESIAN_POINT('Origin',(51.,5.,6.5));
#1300=CARTESIAN_POINT('',(56.,51.,6.5));
#1301=CARTESIAN_POINT('',(56.,5.,6.5));
#1302=CARTESIAN_POINT('',(51.,56.,6.5));
#1303=CARTESIAN_POINT('Origin',(51.,51.,6.5));
#1304=CARTESIAN_POINT('',(5.,56.,6.5));
#1305=CARTESIAN_POINT('',(51.,56.,6.5));
#1306=CARTESIAN_POINT('Origin',(5.,51.,6.5));
#1307=CARTESIAN_POINT('',(49.25,5.,6.5));
#1308=CARTESIAN_POINT('Origin',(51.,5.,6.5));
#1309=CARTESIAN_POINT('',(49.25,51.,6.5));
#1310=CARTESIAN_POINT('Origin',(51.,51.,6.5));
#1311=CARTESIAN_POINT('',(3.29999999999999,51.,6.5));
#1312=CARTESIAN_POINT('Origin',(5.,51.,6.5));
#1313=CARTESIAN_POINT('',(3.25,4.99999999999999,6.5));
#1314=CARTESIAN_POINT('Origin',(4.99999999999999,4.99999999999999,6.5));
#1315=CARTESIAN_POINT('Origin',(18.,18.,0.));
#1316=CARTESIAN_POINT('',(16.,18.,2.7));
#1317=CARTESIAN_POINT('',(18.,16.,2.7));
#1318=CARTESIAN_POINT('Origin',(18.,18.,2.7));
#1319=CARTESIAN_POINT('',(16.,18.,6.));
#1320=CARTESIAN_POINT('',(16.,18.,0.));
#1321=CARTESIAN_POINT('',(18.,16.,6.));
#1322=CARTESIAN_POINT('Origin',(18.,18.,6.));
#1323=CARTESIAN_POINT('',(18.,16.,0.));
#1324=CARTESIAN_POINT('Origin',(28.,28.,2.7));
#1325=CARTESIAN_POINT('',(38.,16.,2.7));
#1326=CARTESIAN_POINT('',(34.,16.,2.7));
#1327=CARTESIAN_POINT('',(40.,18.,2.7));
#1328=CARTESIAN_POINT('Origin',(38.,18.,2.7));
#1329=CARTESIAN_POINT('',(40.,38.,2.7));
#1330=CARTESIAN_POINT('',(40.,34.,2.7));
#1331=CARTESIAN_POINT('',(38.,40.,2.7));
#1332=CARTESIAN_POINT('Origin',(38.,38.,2.7));
#1333=CARTESIAN_POINT('',(18.,40.,2.7));
#1334=CARTESIAN_POINT('',(22.,40.,2.7));
#1335=CARTESIAN_POINT('',(16.,38.,2.7));
#1336=CARTESIAN_POINT('Origin',(18.,38.,2.7));
#1337=CARTESIAN_POINT('',(16.,22.,2.7));
#1338=CARTESIAN_POINT('',(33.1,20.,2.7));
#1339=CARTESIAN_POINT('',(36.4,20.0000002980232,2.7));
#1340=CARTESIAN_POINT('',(31.125,20.,2.7));
#1341=CARTESIAN_POINT('',(33.1,36.,2.7));
#1342=CARTESIAN_POINT('',(33.1,24.,2.7));
#1343=CARTESIAN_POINT('',(34.5,36.,2.7));
#1344=CARTESIAN_POINT('',(30.55,36.,2.7));
#1345=CARTESIAN_POINT('',(36.3481228668942,34.5409556313993,2.7));
#1346=CARTESIAN_POINT('Origin',(36.,36.,2.7));
#1347=CARTESIAN_POINT('',(36.4,34.1,2.7));
#1348=CARTESIAN_POINT('Origin',(34.5,34.1,2.7));
#1349=CARTESIAN_POINT('',(36.4,32.0000002682209,2.7));
#1350=CARTESIAN_POINT('',(22.6,33.,2.7));
#1351=CARTESIAN_POINT('',(19.3,33.,2.7));
#1352=CARTESIAN_POINT('',(23.65,33.,2.7));
#1353=CARTESIAN_POINT('',(22.6,23.,2.7));
#1354=CARTESIAN_POINT('',(22.6,30.5,2.7));
#1355=CARTESIAN_POINT('',(19.3,23.,2.7));
#1356=CARTESIAN_POINT('',(25.3,23.,2.7));
#1357=CARTESIAN_POINT('',(19.3,25.5,2.7));
#1358=CARTESIAN_POINT('',(22.35,36.,2.7));
#1359=CARTESIAN_POINT('Origin',(20.,36.,2.7));
#1360=CARTESIAN_POINT('',(21.65,20.,2.7));
#1361=CARTESIAN_POINT('Origin',(20.,20.,2.7));
#1362=CARTESIAN_POINT('Origin',(40.,16.,0.));
#1363=CARTESIAN_POINT('',(38.,16.,6.));
#1364=CARTESIAN_POINT('',(16.,16.,6.));
#1365=CARTESIAN_POINT('',(38.,16.,0.));
#1366=CARTESIAN_POINT('Origin',(18.,38.,0.));
#1367=CARTESIAN_POINT('',(18.,40.,6.));
#1368=CARTESIAN_POINT('',(18.,40.,0.));
#1369=CARTESIAN_POINT('',(16.,38.,6.));
#1370=CARTESIAN_POINT('Origin',(18.,38.,6.));
#1371=CARTESIAN_POINT('',(16.,38.,0.));
#1372=CARTESIAN_POINT('Origin',(16.,40.,0.));
#1373=CARTESIAN_POINT('',(38.,40.,6.));
#1374=CARTESIAN_POINT('',(38.,40.,0.));
#1375=CARTESIAN_POINT('',(40.,40.,6.));
#1376=CARTESIAN_POINT('Origin',(38.,38.,0.));
#1377=CARTESIAN_POINT('',(40.,38.,6.));
#1378=CARTESIAN_POINT('',(40.,38.,0.));
#1379=CARTESIAN_POINT('Origin',(38.,38.,6.));
#1380=CARTESIAN_POINT('Origin',(40.,40.,0.));
#1381=CARTESIAN_POINT('',(40.,18.,6.));
#1382=CARTESIAN_POINT('',(40.,18.,0.));
#1383=CARTESIAN_POINT('',(40.,16.,6.));
#1384=CARTESIAN_POINT('Origin',(38.,18.,0.));
#1385=CARTESIAN_POINT('Origin',(38.,18.,6.));
#1386=CARTESIAN_POINT('Origin',(34.5,34.1,2.8));
#1387=CARTESIAN_POINT('',(36.3481228668942,34.5409556313993,4.8));
#1388=CARTESIAN_POINT('',(36.3481228668942,34.5409556313993,2.8));
#1389=CARTESIAN_POINT('',(34.5,36.,4.8));
#1390=CARTESIAN_POINT('Origin',(34.5,34.1,4.8));
#1391=CARTESIAN_POINT('',(34.5,36.,2.8));
#1392=CARTESIAN_POINT('',(34.5,36.,-3.));
#1393=CARTESIAN_POINT('',(34.5,36.,2.8));
#1394=CARTESIAN_POINT('',(36.4,34.1,-3.));
#1395=CARTESIAN_POINT('Origin',(34.5,34.1,-3.));
#1396=CARTESIAN_POINT('',(36.4,34.1,2.8));
#1397=CARTESIAN_POINT('Origin',(33.1,36.,2.8));
#1398=CARTESIAN_POINT('',(33.1,36.,-3.));
#1399=CARTESIAN_POINT('',(33.1,36.,0.));
#1400=CARTESIAN_POINT('',(30.55,36.,-3.));
#1401=CARTESIAN_POINT('Origin',(33.1,20.,2.8));
#1402=CARTESIAN_POINT('',(33.1,20.,-3.));
#1403=CARTESIAN_POINT('',(33.1,20.,0.));
#1404=CARTESIAN_POINT('',(33.1,24.,-3.));
#1405=CARTESIAN_POINT('Origin',(22.6,23.,2.8));
#1406=CARTESIAN_POINT('',(22.6,23.,-3.));
#1407=CARTESIAN_POINT('',(22.6,23.,0.));
#1408=CARTESIAN_POINT('',(19.3,23.,-3.));
#1409=CARTESIAN_POINT('',(25.3,23.,-3.));
#1410=CARTESIAN_POINT('',(19.3,23.,0.));
#1411=CARTESIAN_POINT('Origin',(22.6,33.,2.8));
#1412=CARTESIAN_POINT('',(22.6,33.,-3.));
#1413=CARTESIAN_POINT('',(22.6,33.,2.8));
#1414=CARTESIAN_POINT('',(22.6,30.5,-3.));
#1415=CARTESIAN_POINT('Origin',(51.,5.,-3.));
#1416=CARTESIAN_POINT('',(49.25,5.,-3.));
#1417=CARTESIAN_POINT('',(49.25,5.,-3.));
#1418=CARTESIAN_POINT('Origin',(51.,5.,-3.));
#1419=CARTESIAN_POINT('Origin',(5.,51.,-3.));
#1420=CARTESIAN_POINT('',(3.29999999999999,51.,-3.));
#1421=CARTESIAN_POINT('',(3.29999999999999,51.,-3.));
#1422=CARTESIAN_POINT('Origin',(5.,51.,-3.));
#1423=CARTESIAN_POINT('Origin',(4.99999999999999,4.99999999999999,-3.));
#1424=CARTESIAN_POINT('',(3.25,4.99999999999999,-3.));
#1425=CARTESIAN_POINT('',(3.25,4.99999999999999,-3.));
#1426=CARTESIAN_POINT('Origin',(4.99999999999999,4.99999999999999,-3.));
#1427=CARTESIAN_POINT('Origin',(51.,51.,-3.));
#1428=CARTESIAN_POINT('',(49.25,51.,-3.));
#1429=CARTESIAN_POINT('',(49.25,51.,-3.));
#1430=CARTESIAN_POINT('Origin',(51.,51.,-3.));
#1431=CARTESIAN_POINT('Origin',(20.,20.,4.8));
#1432=CARTESIAN_POINT('',(21.65,20.,4.8));
#1433=CARTESIAN_POINT('',(21.65,20.,4.8));
#1434=CARTESIAN_POINT('Origin',(20.,20.,4.8));
#1435=CARTESIAN_POINT('Origin',(28.,28.,-3.));
#1436=CARTESIAN_POINT('',(5.,0.,-3.));
#1437=CARTESIAN_POINT('',(5.55111512312578E-16,5.,-3.));
#1438=CARTESIAN_POINT('Origin',(4.99999999999999,4.99999999999999,-3.));
#1439=CARTESIAN_POINT('',(4.9960036108132E-15,51.,-3.));
#1440=CARTESIAN_POINT('',(4.9960036108132E-15,51.,-3.));
#1441=CARTESIAN_POINT('',(5.,56.,-3.));
#1442=CARTESIAN_POINT('Origin',(5.,51.,-3.));
#1443=CARTESIAN_POINT('',(51.,56.,-3.));
#1444=CARTESIAN_POINT('',(51.,56.,-3.));
#1445=CARTESIAN_POINT('',(56.,51.,-3.));
#1446=CARTESIAN_POINT('Origin',(51.,51.,-3.));
#1447=CARTESIAN_POINT('',(56.,5.,-3.));
#1448=CARTESIAN_POINT('',(56.,5.,-3.));
#1449=CARTESIAN_POINT('',(51.,0.,-3.));
#1450=CARTESIAN_POINT('Origin',(51.,5.,-3.));
#1451=CARTESIAN_POINT('',(5.,0.,-3.));
#1452=CARTESIAN_POINT('',(22.35,36.,-3.));
#1453=CARTESIAN_POINT('Origin',(20.,36.,-3.));
#1454=CARTESIAN_POINT('',(36.4,20.0000002980232,-3.));
#1455=CARTESIAN_POINT('',(36.4,32.0000002682209,-3.));
#1456=CARTESIAN_POINT('',(31.125,20.,-3.));
#1457=CARTESIAN_POINT('',(19.3,33.,-3.));
#1458=CARTESIAN_POINT('',(23.65,33.,-3.));
#1459=CARTESIAN_POINT('',(19.3,25.5,-3.));
#1460=CARTESIAN_POINT('Origin',(20.,36.,2.8));
#1461=CARTESIAN_POINT('',(22.35,36.,2.8));
#1462=CARTESIAN_POINT('Origin',(36.4,36.0000005364418,2.8));
#1463=CARTESIAN_POINT('',(36.4,20.0000002980232,2.8));
#1464=CARTESIAN_POINT('Origin',(36.,36.,2.8));
#1465=CARTESIAN_POINT('Origin',(36.,36.,4.8));
#1466=CARTESIAN_POINT('Origin',(36.,36.0271583852599,4.8));
#1467=CARTESIAN_POINT('Origin',(20.,20.,4.8));
#1468=CARTESIAN_POINT('Origin',(34.25,20.,2.8));
#1469=CARTESIAN_POINT('Origin',(19.3,33.,2.8));
#1470=CARTESIAN_POINT('',(19.3,33.,0.));
#1471=CARTESIAN_POINT('Origin',(19.3,23.,2.8));
#1472=CARTESIAN_POINT('Origin',(16.,16.,0.));
#1473=CARTESIAN_POINT('',(16.,40.,6.));
#1474=CARTESIAN_POINT('Origin',(4.9960036108132E-15,51.,0.));
#1475=CARTESIAN_POINT('',(5.55111512312578E-16,5.,0.));
#1476=CARTESIAN_POINT('',(4.9960036108132E-15,51.,0.));
#1477=CARTESIAN_POINT('Origin',(5.,51.,0.));
#1478=CARTESIAN_POINT('',(5.,56.,0.));
#1479=CARTESIAN_POINT('Origin',(51.,56.,0.));
#1480=CARTESIAN_POINT('',(51.,56.,0.));
#1481=CARTESIAN_POINT('Origin',(51.,51.,0.));
#1482=CARTESIAN_POINT('',(56.,51.,0.));
#1483=CARTESIAN_POINT('Origin',(56.,5.,0.));
#1484=CARTESIAN_POINT('',(56.,5.,0.));
#1485=CARTESIAN_POINT('Origin',(51.,5.,0.));
#1486=CARTESIAN_POINT('',(51.,0.,0.));
#1487=CARTESIAN_POINT('Origin',(5.,0.,0.));
#1488=CARTESIAN_POINT('',(5.,0.,0.));
#1489=CARTESIAN_POINT('Origin',(4.99999999999999,4.99999999999999,0.));
#1490=CARTESIAN_POINT('Origin',(28.,28.,6.));
#1491=UNCERTAINTY_MEASURE_WITH_UNIT(LENGTH_MEASURE(0.01),#1495,
'DISTANCE_ACCURACY_VALUE',
'Maximum model space distance between geometric entities at asserted c
onnectivities');
#1492=UNCERTAINTY_MEASURE_WITH_UNIT(LENGTH_MEASURE(0.01),#1495,
'DISTANCE_ACCURACY_VALUE',
'Maximum model space distance between geometric entities at asserted c
onnectivities');
#1493=(
GEOMETRIC_REPRESENTATION_CONTEXT(3)
GLOBAL_UNCERTAINTY_ASSIGNED_CONTEXT((#1491))
GLOBAL_UNIT_ASSIGNED_CONTEXT((#1495,#1497,#1498))
REPRESENTATION_CONTEXT('','3D')
);
#1494=(
GEOMETRIC_REPRESENTATION_CONTEXT(3)
GLOBAL_UNCERTAINTY_ASSIGNED_CONTEXT((#1492))
GLOBAL_UNIT_ASSIGNED_CONTEXT((#1495,#1497,#1498))
REPRESENTATION_CONTEXT('','3D')
);
#1495=(
LENGTH_UNIT()
NAMED_UNIT(*)
SI_UNIT(.MILLI.,.METRE.)
);
#1496=(
LENGTH_UNIT()
NAMED_UNIT(*)
SI_UNIT($,.METRE.)
);
#1497=(
NAMED_UNIT(*)
PLANE_ANGLE_UNIT()
SI_UNIT($,.RADIAN.)
);
#1498=(
NAMED_UNIT(*)
SI_UNIT($,.STERADIAN.)
SOLID_ANGLE_UNIT()
);
#1499=SHAPE_DEFINITION_REPRESENTATION(#1500,#1501);
#1500=PRODUCT_DEFINITION_SHAPE('',$,#1503);
#1501=SHAPE_REPRESENTATION('',(#896),#1493);
#1502=PRODUCT_DEFINITION_CONTEXT('part definition',#1507,'design');
#1503=PRODUCT_DEFINITION('Encoder','Encoder v12',#1504,#1502);
#1504=PRODUCT_DEFINITION_FORMATION('',$,#1509);
#1505=PRODUCT_RELATED_PRODUCT_CATEGORY('Encoder v12','Encoder v12',(#1509));
#1506=APPLICATION_PROTOCOL_DEFINITION('international standard',
'automotive_design',2009,#1507);
#1507=APPLICATION_CONTEXT(
'Core Data for Automotive Mechanical Design Process');
#1508=PRODUCT_CONTEXT('part definition',#1507,'mechanical');
#1509=PRODUCT('Encoder','Encoder v12',$,(#1508));
#1510=PRESENTATION_STYLE_ASSIGNMENT((#1511));
#1511=SURFACE_STYLE_USAGE(.BOTH.,#1512);
#1512=SURFACE_SIDE_STYLE('',(#1513));
#1513=SURFACE_STYLE_FILL_AREA(#1514);
#1514=FILL_AREA_STYLE('Stal \X2\2014\X0\ satynowa',(#1515));
#1515=FILL_AREA_STYLE_COLOUR('Stal \X2\2014\X0\ satynowa',#1516);
#1516=COLOUR_RGB('Stal \X2\2014\X0\ satynowa',0.627450980392157,0.627450980392157,
0.627450980392157);
ENDSEC;
END-ISO-10303-21;
